<svg version="1.1" id="Layer_1" xmlns="http://www.w3.org/2000/svg" xmlns:xlink="http://www.w3.org/1999/xlink" x="0px" y="0px"
	 width="100%" viewBox="0 0 1920 1920" enable-background="new 0 0 1920 1920" xml:space="preserve">
<path fill="#FFFFFF" opacity="1.000000" stroke="none" 
	d="
M924.000000,1921.000000 
	C616.000000,1921.000000 308.500000,1921.000000 1.000000,1921.000000 
	C1.000000,1281.000000 1.000000,641.000000 1.000000,1.000000 
	C641.000000,1.000000 1281.000000,1.000000 1921.000000,1.000000 
	C1921.000000,641.000000 1921.000000,1281.000000 1921.000000,1921.000000 
	C1588.833374,1921.000000 1256.666626,1921.000000 924.000000,1921.000000 
M913.321533,795.865479 
	C913.297913,800.834839 913.406433,805.810913 913.156982,810.768921 
	C913.095337,811.993958 911.870544,813.160461 910.418823,814.057617 
	C883.206909,805.250732 856.087524,805.812134 829.007141,813.942322 
	C828.990051,812.944702 828.958069,811.947083 828.957947,810.949463 
	C828.954407,785.329285 828.999878,759.708923 828.851562,734.089600 
	C828.841553,732.362732 827.702698,729.429382 826.531311,729.111511 
	C815.914856,726.230347 805.295898,722.744507 794.441101,721.500793 
	C778.505676,719.675171 762.848389,722.600037 747.658264,727.965698 
	C744.163635,729.200073 742.803284,730.597717 742.822998,734.490784 
	C742.960632,761.604187 742.810303,788.719116 742.013550,815.832458 
	C737.367798,814.679138 732.780457,813.103088 728.065308,812.451843 
	C714.031006,810.513550 699.926575,807.439941 685.887024,807.626831 
	C670.667358,807.829468 655.489990,811.202087 640.659424,812.381104 
	C643.544861,797.290527 643.882141,782.080750 641.312073,766.996277 
	C640.008484,759.344910 637.005310,751.983154 634.981018,743.765808 
	C641.058228,720.917114 644.845764,697.777588 642.086731,674.091187 
	C640.637146,661.646606 638.049683,649.338074 636.187439,636.936340 
	C635.469116,632.152100 633.345886,630.699890 628.352783,630.705200 
	C479.608978,630.863525 330.864960,630.834167 182.121002,630.834045 
	C178.456543,630.834045 174.759537,630.547485 171.143173,630.963623 
	C169.638977,631.136719 167.409943,632.542847 167.032776,633.833313 
	C162.373428,649.774475 159.696075,666.104370 159.180786,682.688782 
	C158.528610,703.678772 161.516266,724.263916 166.778915,745.002380 
	C161.807266,757.173035 159.914780,769.995544 159.169144,782.980835 
	C158.251175,798.967163 161.568344,814.411560 165.072723,829.730835 
	C162.328110,829.794006 159.583511,829.857117 155.954773,829.795837 
	C152.308655,829.849060 148.662521,829.902283 144.088531,829.794861 
	C138.930298,829.785217 133.757690,830.004456 128.619125,829.681641 
	C125.432808,829.481445 123.873901,830.788513 123.412102,833.601807 
	C120.930077,848.722412 117.876892,863.790222 116.336578,879.009460 
	C115.360283,888.655823 115.946823,898.626099 117.157463,908.285034 
	C118.589584,919.711060 121.322769,930.986450 123.846115,942.247742 
	C124.165901,943.674927 126.573532,945.538574 128.105591,945.628052 
	C133.732666,945.956299 139.398422,945.621704 145.881088,945.753540 
	C148.190201,945.765564 150.499313,945.777588 152.623734,946.539062 
	C147.446594,967.411255 144.520859,988.611694 143.968964,1010.091858 
	C143.743912,1018.851562 143.798767,1027.708252 144.824310,1036.391113 
	C146.869308,1053.705688 149.698685,1070.927124 152.137451,1088.196411 
	C152.513000,1090.855713 153.783890,1091.779907 156.444534,1091.734985 
	C160.239136,1091.671143 164.040543,1092.009155 167.503357,1092.792847 
	C162.111603,1108.692017 160.105042,1125.224243 159.228958,1141.828735 
	C158.078873,1163.626099 161.878159,1184.917114 166.597412,1205.985718 
	C153.961395,1205.986572 141.323334,1206.113281 128.690720,1205.906006 
	C125.217720,1205.848999 123.894302,1207.135132 122.755623,1210.293213 
	C115.775314,1229.652954 113.942192,1249.456543 117.981865,1269.574585 
	C119.438812,1276.830444 122.635017,1283.736938 125.476418,1291.108521 
	C125.648849,1291.063232 125.821274,1291.017822 126.917816,1291.146484 
	C307.957855,1291.155884 488.997925,1291.165649 670.037964,1291.165283 
	C671.030029,1291.165283 672.022034,1291.023560 673.796936,1291.109131 
	C674.849426,1291.024048 675.901978,1290.938843 677.404419,1290.992798 
	C677.404419,1290.992798 677.867004,1290.904785 678.814331,1291.058472 
	C700.745850,1292.107910 722.199158,1289.395142 743.823059,1283.217041 
	C767.687256,1292.454956 791.948792,1294.127075 816.668457,1287.036865 
	C820.458313,1285.949951 824.242432,1284.842896 828.642090,1284.192261 
	C846.326233,1291.051147 864.846069,1292.476318 883.394104,1290.827637 
	C893.732971,1289.908569 903.824646,1286.208496 914.826721,1283.711426 
	C915.469116,1283.842041 916.142517,1283.889404 916.749451,1284.115234 
	C944.313110,1294.376465 971.700989,1293.838013 999.560791,1283.281738 
	C1003.056213,1284.176880 1006.553650,1285.064209 1010.046692,1285.968628 
	C1028.577759,1290.766479 1047.464844,1291.802368 1066.485962,1291.155762 
	C1082.626831,1290.607300 1098.321655,1287.384644 1114.610718,1282.888428 
	C1127.778198,1285.242920 1140.862671,1288.554321 1154.134521,1289.706665 
	C1170.266113,1291.107300 1186.555176,1290.908813 1202.777222,1290.952759 
	C1209.695068,1290.971558 1216.673584,1290.225952 1223.522339,1289.166626 
	C1235.431885,1287.324707 1247.262207,1284.969849 1259.730713,1283.172485 
	C1268.515259,1289.210327 1278.152588,1292.299683 1288.854370,1291.091797 
	C1296.867432,1290.187500 1304.380127,1287.904541 1310.758911,1281.838989 
	C1329.499878,1284.948364 1348.137451,1289.342896 1367.006470,1290.860352 
	C1394.061523,1293.036011 1420.991089,1290.130371 1447.459839,1283.634155 
	C1455.703125,1281.611206 1455.746216,1281.891724 1455.745728,1273.328125 
	C1455.735352,1122.184814 1455.728149,971.041382 1455.776978,819.898010 
	C1455.777588,818.272766 1456.533325,816.647827 1457.083008,815.720581 
	C1469.514893,837.271545 1481.959595,858.815125 1494.375732,880.375122 
	C1514.157715,914.725708 1533.883423,949.108765 1553.701904,983.438232 
	C1573.020752,1016.902649 1592.448853,1050.304077 1611.786987,1083.757202 
	C1631.791748,1118.363525 1651.740479,1153.002197 1671.724365,1187.620605 
	C1690.960815,1220.943726 1710.275146,1254.222412 1729.347290,1287.639526 
	C1731.095947,1290.703613 1732.941040,1291.589722 1736.035645,1291.074341 
	C1763.668579,1286.472534 1786.451050,1273.412720 1804.111084,1251.667358 
	C1805.150146,1250.388062 1805.223267,1247.221069 1804.377808,1245.685913 
	C1796.220947,1230.877075 1787.854980,1216.181030 1779.388916,1201.545166 
	C1751.326904,1153.032715 1723.157227,1104.582397 1695.108276,1056.062378 
	C1671.785156,1015.717163 1648.588379,975.299011 1625.308838,934.928589 
	C1603.361572,896.868774 1581.380615,858.828430 1559.412476,820.780701 
	C1549.636230,803.848694 1539.854858,786.919617 1530.050903,769.946045 
	C1514.581665,771.964233 1500.157593,776.566528 1486.908813,784.443542 
	C1475.228638,791.387939 1465.375610,800.495056 1456.166626,810.807007 
	C1456.024536,809.000305 1455.761353,807.193726 1455.758789,805.386841 
	C1455.726929,782.432373 1455.637573,759.477112 1455.822388,736.524170 
	C1455.853149,732.712708 1454.860718,730.597107 1451.032471,729.963196 
	C1433.655273,727.085327 1416.382812,722.837952 1398.891235,721.552185 
	C1368.845337,719.343567 1339.107544,722.990234 1309.688354,730.457397 
	C1308.989014,729.753479 1308.377441,728.923767 1307.577148,728.364441 
	C1293.687012,718.655090 1275.095459,718.636108 1261.429810,728.570068 
	C1260.045654,729.576294 1259.112793,732.106750 1259.091553,733.942932 
	C1258.910278,749.585938 1259.013184,765.232117 1258.954712,780.877014 
	C1258.948120,782.636780 1258.468384,784.394775 1257.464478,785.825439 
	C1239.390381,782.912415 1221.401489,779.086792 1203.213989,777.390198 
	C1189.924072,776.150513 1176.281616,776.844543 1162.961670,778.247070 
	C1146.575439,779.972473 1130.361328,783.330383 1113.943359,785.170532 
	C1113.890259,784.080627 1113.837036,782.990723 1113.897217,780.982971 
	C1113.860840,774.691223 1113.824463,768.399414 1113.917969,761.328186 
	C1113.839233,760.545349 1113.760498,759.762512 1113.843262,758.085938 
	C1113.802368,755.350037 1113.761597,752.614197 1113.883667,748.969788 
	C1113.894897,743.649963 1114.069946,738.321899 1113.804565,733.015869 
	C1113.736450,731.653625 1112.527710,729.480652 1111.422852,729.169067 
	C1096.229492,724.884277 1080.801025,721.465088 1064.961670,721.396362 
	C1052.924683,721.344116 1040.791992,721.672180 1028.871216,723.173889 
	C1018.721924,724.452454 1008.814148,727.646912 998.184204,729.690125 
	C970.963623,718.176941 943.556091,718.577026 916.079895,728.611511 
	C914.824097,729.070129 913.434448,731.199707 913.391479,732.590698 
	C913.201721,738.731018 913.482727,744.885803 913.350464,751.921143 
	C913.428955,755.600159 913.507446,759.279114 913.323730,763.864319 
	C913.398682,770.825806 913.473633,777.787292 913.340942,785.687988 
	C913.419067,788.776428 913.497131,791.864868 913.321533,795.865479 
z"/>
<path fill="#EF6246" opacity="1.000000" stroke="none" 
	d="
M1310.000977,731.070496 
	C1339.107544,722.990234 1368.845337,719.343567 1398.891235,721.552185 
	C1416.382812,722.837952 1433.655273,727.085327 1451.032471,729.963196 
	C1454.860718,730.597107 1455.853149,732.712708 1455.822388,736.524170 
	C1455.637573,759.477112 1455.726929,782.432373 1455.758789,805.386841 
	C1455.761353,807.193726 1456.024536,809.000305 1456.443115,811.226562 
	C1456.791870,812.771729 1456.864258,813.897217 1456.936523,815.022766 
	C1456.533325,816.647827 1455.777588,818.272766 1455.776978,819.898010 
	C1455.728149,971.041382 1455.735352,1122.184814 1455.745728,1273.328125 
	C1455.746216,1281.891724 1455.703125,1281.611206 1447.459839,1283.634155 
	C1420.991089,1290.130371 1394.061523,1293.036011 1367.006470,1290.860352 
	C1348.137451,1289.342896 1329.499878,1284.948364 1310.323730,1281.264648 
	C1309.855225,1279.026001 1309.792725,1277.361572 1309.792603,1275.697266 
	C1309.782837,1097.814819 1309.776245,919.932312 1309.781860,742.049866 
	C1309.781982,738.390076 1309.924805,734.730286 1310.000977,731.070496 
M1412.500000,859.015991 
	C1419.493408,859.016052 1426.491455,858.862488 1433.478027,859.081482 
	C1436.923096,859.189453 1438.093628,858.123108 1438.068726,854.580322 
	C1437.925781,834.267395 1437.903809,813.952087 1438.083862,793.639771 
	C1438.118164,789.763672 1436.763062,788.935486 1433.170044,788.947815 
	C1399.369385,789.064331 1365.567871,789.066711 1331.767334,788.942078 
	C1328.102295,788.928589 1326.879395,789.891663 1326.912354,793.694153 
	C1327.086548,813.840027 1327.110962,833.989502 1326.899170,854.134644 
	C1326.855835,858.265930 1328.294556,859.108398 1332.076172,859.088806 
	C1358.550171,858.951599 1385.025269,859.016113 1412.500000,859.015991 
M1396.500000,900.985352 
	C1408.483521,900.985413 1420.475586,900.723633 1432.446533,901.111633 
	C1437.384766,901.271667 1438.249023,899.386963 1438.107300,895.088989 
	C1437.978394,891.183472 1437.976562,888.808228 1432.658447,888.852905 
	C1399.206909,889.133667 1365.750610,889.131409 1332.298828,888.855896 
	C1326.954224,888.811890 1327.024902,891.235779 1326.882202,895.129700 
	C1326.722168,899.500854 1327.738037,901.173157 1332.588257,901.107300 
	C1353.555542,900.822266 1374.528809,900.985352 1396.500000,900.985352 
M1413.500000,933.014648 
	C1419.825073,933.013794 1426.177246,932.653870 1432.466797,933.126099 
	C1437.478760,933.502441 1438.213623,931.323242 1438.105591,927.083618 
	C1438.005249,923.147278 1437.932617,920.825073 1432.638794,920.869568 
	C1399.184814,921.150940 1365.726440,921.113159 1332.271362,920.898621 
	C1327.559204,920.868408 1326.690186,922.572083 1326.899658,926.683533 
	C1327.086304,930.346924 1326.495972,933.219788 1332.106323,933.154175 
	C1358.901123,932.840881 1385.701538,933.014282 1413.500000,933.014648 
z"/>
<path fill="#CE4A36" opacity="1.000000" stroke="none" 
	d="
M1457.009766,815.371704 
	C1456.864258,813.897217 1456.791870,812.771729 1456.857666,811.418457 
	C1465.375610,800.495056 1475.228638,791.387939 1486.908813,784.443542 
	C1500.157593,776.566528 1514.581665,771.964233 1530.050903,769.946045 
	C1539.854858,786.919617 1549.636230,803.848694 1559.412476,820.780701 
	C1581.380615,858.828430 1603.361572,896.868774 1625.308838,934.928589 
	C1648.588379,975.299011 1671.785156,1015.717163 1695.108276,1056.062378 
	C1723.157227,1104.582397 1751.326904,1153.032715 1779.388916,1201.545166 
	C1787.854980,1216.181030 1796.220947,1230.877075 1804.377808,1245.685913 
	C1805.223267,1247.221069 1805.150146,1250.388062 1804.111084,1251.667358 
	C1786.451050,1273.412720 1763.668579,1286.472534 1736.035645,1291.074341 
	C1732.941040,1291.589722 1731.095947,1290.703613 1729.347290,1287.639526 
	C1710.275146,1254.222412 1690.960815,1220.943726 1671.724365,1187.620605 
	C1651.740479,1153.002197 1631.791748,1118.363525 1611.786987,1083.757202 
	C1592.448853,1050.304077 1573.020752,1016.902649 1553.701904,983.438232 
	C1533.883423,949.108765 1514.157715,914.725708 1494.375732,880.375122 
	C1481.959595,858.815125 1469.514893,837.271545 1457.009766,815.371704 
M1776.814575,1234.781738 
	C1775.946655,1233.616455 1775.078735,1232.451172 1774.101318,1231.138550 
	C1760.214844,1239.257202 1746.555786,1247.243042 1732.659668,1255.367310 
	C1734.113525,1257.857910 1735.425659,1259.607300 1736.217651,1261.567017 
	C1737.814819,1265.518677 1740.033081,1265.360596 1743.153564,1263.288452 
	C1746.465820,1261.089111 1749.998291,1259.221069 1753.439819,1257.217163 
	C1762.289795,1252.063232 1771.142944,1246.914429 1780.266724,1241.605347 
	C1779.057495,1239.236694 1778.086060,1237.333984 1776.814575,1234.781738 
M1727.296631,1220.840576 
	C1723.762085,1222.851685 1720.227417,1224.862793 1716.359253,1227.063843 
	C1718.562134,1230.833496 1720.371582,1233.929932 1722.472290,1237.524658 
	C1736.660767,1229.318726 1750.344727,1221.404541 1764.209351,1213.385864 
	C1761.996582,1209.562988 1760.189331,1206.440552 1758.175049,1202.960571 
	C1747.956787,1208.869629 1737.939697,1214.662354 1727.296631,1220.840576 
M1515.382446,853.855957 
	C1525.673462,847.946472 1535.964600,842.036987 1546.482666,835.997131 
	C1544.170288,832.234070 1542.290283,829.174927 1540.185791,825.750244 
	C1526.086182,833.869568 1512.370361,841.767883 1498.489258,849.761292 
	C1500.765869,853.711975 1502.554810,856.816406 1504.564087,860.303101 
	C1508.230591,858.092529 1511.477417,856.134888 1515.382446,853.855957 
M1498.027466,812.510193 
	C1494.147095,814.765564 1490.351196,817.187073 1486.357788,819.220703 
	C1483.457031,820.697937 1481.926270,822.387146 1484.265381,825.309265 
	C1486.322388,827.879089 1486.797485,833.411072 1492.504272,829.786560 
	C1497.411377,826.670044 1502.611084,824.017944 1507.633179,821.078064 
	C1515.037476,816.743774 1522.399170,812.336304 1530.136108,807.748230 
	C1527.844238,804.047791 1525.893555,800.898254 1523.873291,797.636414 
	C1515.070679,802.708069 1506.871216,807.432251 1498.027466,812.510193 
z"/>
<path fill="#1C98AA" opacity="1.000000" stroke="none" 
	d="
M828.029175,1283.745239 
	C824.242432,1284.842896 820.458313,1285.949951 816.668457,1287.036865 
	C791.948792,1294.127075 767.687256,1292.454956 743.478027,1282.587280 
	C743.114624,1280.125977 743.080200,1278.294312 743.080139,1276.462769 
	C743.076782,1125.410156 743.077576,974.357483 743.061646,823.304810 
	C743.061401,820.814392 742.859863,818.323975 742.752197,815.833557 
	C742.810303,788.719116 742.960632,761.604187 742.822998,734.490784 
	C742.803284,730.597717 744.163635,729.200073 747.658264,727.965698 
	C762.848389,722.600037 778.505676,719.675171 794.441101,721.500793 
	C805.295898,722.744507 815.914856,726.230347 826.531311,729.111511 
	C827.702698,729.429382 828.841553,732.362732 828.851562,734.089600 
	C828.999878,759.708923 828.954407,785.329285 828.957947,810.949463 
	C828.958069,811.947083 828.990051,812.944702 828.865112,814.796814 
	C828.487671,817.776123 828.046753,819.900818 828.046265,822.025696 
	C828.014038,973.134705 828.016724,1124.243652 828.017334,1275.352661 
	C828.017334,1278.150146 828.025085,1280.947754 828.029175,1283.745239 
M763.004883,1251.368042 
	C762.657593,1253.907471 762.350281,1256.453247 761.953796,1258.984985 
	C761.330322,1262.966187 763.009338,1264.085571 766.935120,1264.013550 
	C779.724060,1263.779297 792.519836,1263.928833 805.312927,1263.897583 
	C806.746338,1263.894165 808.179260,1263.678955 809.603149,1263.562622 
	C809.603149,1259.249390 809.603149,1255.382202 809.603149,1251.149780 
	C794.079041,1251.149780 778.987732,1251.149780 763.004883,1251.368042 
M761.969543,756.537109 
	C761.969543,758.482239 761.969543,760.427368 761.969543,762.534058 
	C778.289124,762.534058 793.971863,762.534058 810.026550,762.534058 
	C810.026550,760.282288 809.806580,758.436951 810.069153,756.662903 
	C810.765076,751.961548 808.781555,750.771423 804.253479,750.877808 
	C791.769714,751.171448 779.272766,751.095154 766.785095,750.902344 
	C763.178589,750.846619 761.341370,751.730896 761.969543,756.537109 
M761.971619,788.552917 
	C761.971619,790.621582 761.971619,792.690247 761.971619,795.069641 
	C775.395142,795.069641 787.870850,795.069397 800.346619,795.069763 
	C810.929504,795.070068 810.933167,795.069946 809.768127,784.350037 
	C809.737793,784.070923 809.413025,783.823730 808.892578,783.095825 
	C794.434998,783.095825 779.649414,783.121704 764.864075,783.076843 
	C761.329224,783.066162 762.082275,785.562866 761.971619,788.552917 
M807.208252,1219.016479 
	C792.282837,1219.016479 777.357483,1219.016479 762.327820,1219.016479 
	C762.327820,1223.336182 762.327820,1226.901001 762.327820,1230.682617 
	C778.253052,1230.682617 793.815918,1230.682617 810.874084,1230.682617 
	C809.871582,1226.431641 809.003296,1222.749756 807.208252,1219.016479 
z"/>
<path fill="#30333A" opacity="1.000000" stroke="none" 
	d="
M677.867004,1290.904785 
	C677.867004,1290.904785 677.404419,1290.992798 676.956787,1290.687988 
	C675.344116,1290.571411 674.179077,1290.759644 673.014099,1290.947876 
	C672.022034,1291.023560 671.030029,1291.165283 670.037964,1291.165283 
	C488.997925,1291.165649 307.957855,1291.155884 126.385330,1290.896851 
	C125.581078,1290.699097 125.309303,1290.750977 125.037529,1290.802979 
	C122.635017,1283.736938 119.438812,1276.830444 117.981865,1269.574585 
	C113.942192,1249.456543 115.775314,1229.652954 122.755623,1210.293213 
	C123.894302,1207.135132 125.217720,1205.848999 128.690720,1205.906006 
	C141.323334,1206.113281 153.961395,1205.986572 167.508392,1205.992432 
	C321.311401,1205.999390 474.203430,1206.000366 627.095459,1205.991943 
	C629.423401,1205.991821 631.751404,1205.872314 634.539917,1205.867065 
	C644.673035,1205.903687 654.345520,1205.881592 664.476318,1205.919434 
	C667.765503,1205.988037 670.671021,1205.610474 673.402039,1206.137451 
	C675.300842,1206.503662 676.959900,1208.112549 678.797974,1209.542603 
	C683.273743,1222.255737 685.647522,1234.984863 686.162720,1248.512451 
	C685.924377,1253.014526 685.763306,1257.062378 685.437683,1261.440552 
	C682.804443,1271.482300 680.335693,1281.193481 677.867004,1290.904785 
M146.402100,1224.888306 
	C146.006119,1226.575928 145.283585,1228.260376 145.267258,1229.951660 
	C145.162918,1240.755371 145.213501,1251.560547 145.213943,1262.365234 
	C145.214417,1273.776123 145.215134,1273.779541 156.688705,1272.717041 
	C156.963379,1272.691528 157.209854,1272.361816 157.877762,1271.878540 
	C157.877762,1259.230347 157.877762,1246.291870 157.877762,1233.353394 
	C157.877762,1223.974365 157.586044,1223.701416 148.156204,1224.320557 
	C147.830185,1224.341919 147.511307,1224.472412 146.402100,1224.888306 
M651.635254,1224.225342 
	C647.223755,1223.547729 645.888245,1225.449707 646.015198,1229.817261 
	C646.304688,1239.777832 646.103394,1249.752441 646.101990,1259.721436 
	C646.101440,1263.977051 646.101868,1268.232666 646.101868,1272.611206 
	C650.396118,1272.611206 653.959961,1272.611206 657.861633,1272.611206 
	C657.945618,1270.698730 658.076355,1269.077637 658.078491,1267.456299 
	C658.095337,1254.828979 657.869995,1242.195923 658.201904,1229.577393 
	C658.322449,1224.995239 656.780518,1223.531250 651.635254,1224.225342 
M625.928711,1239.504761 
	C625.928711,1234.755371 625.928711,1230.005981 625.928711,1225.221436 
	C621.563660,1225.221436 618.005859,1225.221436 614.334717,1225.221436 
	C614.334717,1241.243774 614.334717,1256.894165 614.334717,1272.591919 
	C618.296631,1272.591919 621.858765,1272.591919 625.928528,1272.591919 
	C625.928528,1261.676025 625.928528,1251.089844 625.928711,1239.504761 
M190.063324,1228.693848 
	C189.208664,1227.422607 188.516861,1225.243042 187.468002,1225.054932 
	C184.624084,1224.545166 181.628708,1224.880127 178.424667,1224.880127 
	C178.424667,1241.146606 178.424667,1256.803833 178.424667,1272.635986 
	C182.340179,1272.635986 185.901489,1272.635986 190.064560,1272.635986 
	C190.064560,1258.113525 190.064560,1243.883179 190.063324,1228.693848 
z"/>
<path fill="#CE4A36" opacity="1.000000" stroke="none" 
	d="
M634.079346,1205.808472 
	C631.751404,1205.872314 629.423401,1205.991821 627.095459,1205.991943 
	C474.203430,1206.000366 321.311401,1205.999390 168.013046,1205.943604 
	C161.878159,1184.917114 158.078873,1163.626099 159.228958,1141.828735 
	C160.105042,1125.224243 162.111603,1108.692017 167.954285,1092.174927 
	C171.280518,1091.372437 174.155838,1091.187866 177.293121,1091.072021 
	C177.730484,1091.184448 177.905869,1091.227905 178.363129,1091.485352 
	C180.730423,1091.564697 182.815857,1091.430420 185.312042,1091.241211 
	C186.827896,1091.134399 187.933014,1091.082275 189.503357,1091.031982 
	C195.046951,1090.991211 200.125336,1090.948364 205.643967,1090.965942 
	C209.958176,1090.964966 213.832123,1090.903442 218.187256,1090.897949 
	C350.119995,1090.967773 481.571564,1090.981567 613.480225,1091.038330 
	C617.633911,1091.062012 621.330627,1091.042603 625.453369,1091.025391 
	C628.629761,1091.338501 631.379944,1091.649292 634.313354,1092.342651 
	C645.388367,1130.460327 645.261475,1168.154785 634.079346,1205.808472 
M249.500000,1138.733521 
	C331.625183,1138.733643 413.750366,1138.734741 495.875549,1138.731689 
	C503.065460,1138.731445 506.167847,1136.692505 506.066284,1132.079346 
	C505.971252,1127.763184 503.165192,1126.117676 495.892792,1126.117554 
	C397.442505,1126.116699 298.992218,1126.116089 200.541931,1126.116089 
	C199.209320,1126.116089 197.873749,1126.070923 196.544632,1126.141968 
	C192.536423,1126.356201 189.481369,1128.360962 189.445618,1132.388672 
	C189.408844,1136.530518 192.368240,1138.202271 196.565598,1138.220093 
	C213.877472,1138.293335 231.188599,1138.546265 249.500000,1138.733521 
M394.500000,1170.950195 
	C428.497894,1170.950439 462.495819,1170.971313 496.493561,1170.904419 
	C498.759949,1170.900024 501.481903,1170.874023 503.156525,1169.683228 
	C504.693512,1168.590332 506.021210,1165.767944 505.746033,1163.966553 
	C505.472473,1162.175903 503.273743,1160.449829 501.551178,1159.204712 
	C500.656097,1158.557617 498.966187,1158.971436 497.635315,1158.971313 
	C397.808136,1158.967285 297.980957,1158.969604 198.153793,1158.973022 
	C197.153961,1158.973022 196.150375,1158.941406 195.154968,1159.013550 
	C191.581284,1159.272217 189.035400,1161.596436 189.663742,1164.731567 
	C190.128754,1167.051880 192.970901,1169.067871 195.098404,1170.795166 
	C195.907837,1171.452393 197.679077,1170.935913 199.011963,1170.936035 
	C263.841309,1170.942017 328.670654,1170.946045 394.500000,1170.950195 
M549.178101,1137.949585 
	C545.333618,1151.418579 548.017334,1163.144043 558.369202,1172.907959 
	C570.297852,1184.159302 590.327698,1183.932007 602.302429,1172.337402 
	C615.162781,1159.885498 616.124939,1140.158691 604.877747,1127.344971 
	C588.528931,1108.719238 558.197571,1113.768433 549.178101,1137.949585 
z"/>
<path fill="#FECD2C" opacity="1.000000" stroke="none" 
	d="
M167.405441,744.422913 
	C161.516266,724.263916 158.528610,703.678772 159.180786,682.688782 
	C159.696075,666.104370 162.373428,649.774475 167.032776,633.833313 
	C167.409943,632.542847 169.638977,631.136719 171.143173,630.963623 
	C174.759537,630.547485 178.456543,630.834045 182.121002,630.834045 
	C330.864960,630.834167 479.608978,630.863525 628.352783,630.705200 
	C633.345886,630.699890 635.469116,632.152100 636.187439,636.936340 
	C638.049683,649.338074 640.637146,661.646606 642.086731,674.091187 
	C644.845764,697.777588 641.058228,720.917114 634.452759,744.293213 
	C632.763123,744.882629 631.601746,744.999084 630.440430,744.999146 
	C477.724518,745.006714 325.008636,745.007568 172.292725,744.981201 
	C170.663605,744.980957 169.034531,744.617065 167.405441,744.422913 
M353.500000,649.977295 
	C302.036377,649.977112 250.572739,649.975586 199.109116,649.982605 
	C197.446533,649.982849 195.732605,649.827271 194.131119,650.164490 
	C189.559036,651.127319 187.709152,656.026184 191.017822,659.225586 
	C192.673950,660.827026 195.616318,661.857239 197.978561,661.860229 
	C297.741180,661.987366 397.503967,661.976929 497.266724,661.915527 
	C499.345459,661.914246 501.948456,661.729004 503.357605,660.521667 
	C504.824707,659.264648 506.047180,656.486206 505.700287,654.698242 
	C505.358978,652.939087 503.111481,651.263245 501.320587,650.177368 
	C500.213623,649.506104 498.397217,649.981750 496.899292,649.981628 
	C449.432861,649.977173 401.966431,649.977600 353.500000,649.977295 
M211.500961,714.982483 
	C206.171341,714.987244 200.840973,714.939636 195.512390,715.016418 
	C192.303574,715.062683 189.576660,716.642090 189.766891,719.893555 
	C189.897736,722.130005 191.643021,724.567871 193.308441,726.298035 
	C194.184433,727.208069 196.438126,726.951477 198.069778,726.951843 
	C297.667847,726.976624 397.265930,726.979797 496.863983,726.928467 
	C498.962921,726.927368 501.635468,726.928894 503.009277,725.738770 
	C504.588165,724.371033 505.918488,721.562195 505.669830,719.592285 
	C505.458862,717.920654 503.013611,716.292725 501.232117,715.153503 
	C500.276367,714.542297 498.635925,714.981262 497.304443,714.981201 
	C402.369812,714.979431 307.435211,714.981079 211.500961,714.982483 
M393.500000,682.020874 
	C328.862091,682.020081 264.224182,682.019165 199.586258,682.018982 
	C198.253555,682.018982 196.911484,681.928467 195.589981,682.052734 
	C192.114685,682.379456 190.189026,684.301758 189.967514,687.829529 
	C189.665939,692.631897 191.528152,694.027100 198.343826,694.027405 
	C298.132690,694.031921 397.921570,694.030823 497.710449,694.029907 
	C498.709869,694.029907 499.715637,694.084473 500.707581,693.994080 
	C504.980988,693.604858 506.537933,690.848206 505.907501,687.055908 
	C505.126160,682.355530 501.293365,682.017395 497.454132,682.017883 
	C463.136078,682.022095 428.818054,682.020630 393.500000,682.020874 
M575.873169,655.998962 
	C553.658203,658.867920 541.982544,682.303955 549.870728,700.609558 
	C558.106079,719.720520 581.275452,727.182861 598.937439,714.778931 
	C614.692932,703.713928 617.282532,680.252991 604.112549,666.457153 
	C596.539307,658.523926 587.537842,655.181335 575.873169,655.998962 
z"/>
<path fill="#087B98" opacity="1.000000" stroke="none" 
	d="
M167.092178,744.712646 
	C169.034531,744.617065 170.663605,744.980957 172.292725,744.981201 
	C325.008636,745.007568 477.724518,745.006714 630.440430,744.999146 
	C631.601746,744.999084 632.763123,744.882629 634.347412,744.655518 
	C637.005310,751.983154 640.008484,759.344910 641.312073,766.996277 
	C643.882141,782.080750 643.544861,797.290527 640.293457,813.055298 
	C638.529053,819.405579 637.130615,825.081665 635.365601,830.648560 
	C631.338013,830.524841 627.677002,830.510193 623.570007,830.386353 
	C619.743225,830.349243 616.362488,830.421326 612.526367,830.387756 
	C472.050903,830.269958 332.030701,830.257263 192.010513,830.255554 
	C191.018890,830.255554 190.027283,830.406494 188.579346,830.390137 
	C184.428177,830.361633 180.733353,830.429871 176.585938,830.404053 
	C172.750046,830.093079 169.366760,829.876221 165.983475,829.659302 
	C161.568344,814.411560 158.251175,798.967163 159.169144,782.980835 
	C159.914780,769.995544 161.807266,757.173035 167.092178,744.712646 
M576.449280,801.050781 
	C580.547729,805.355103 584.646118,809.659485 588.483521,813.689697 
	C597.719543,804.401917 606.125549,795.948792 613.697327,788.334595 
	C605.516479,779.830200 597.058960,771.038269 588.328552,761.962524 
	C580.760498,769.606689 573.186890,777.341064 565.501221,784.962585 
	C563.456299,786.990540 563.669067,788.457458 565.663757,790.333130 
	C569.183044,793.642334 572.525269,797.139832 576.449280,801.050781 
M224.485077,805.151917 
	C213.857834,805.151855 203.228363,805.046753 192.605896,805.272583 
	C191.126312,805.304016 188.684174,806.741028 188.420059,807.916626 
	C187.797379,810.688049 188.220398,813.694458 188.220398,816.487671 
	C204.880859,816.487671 220.708542,816.487671 236.564468,816.487671 
	C236.564468,812.608459 236.564468,809.188416 236.564468,805.152222 
	C232.685272,805.152222 229.080887,805.152222 224.485077,805.151917 
M217.498993,758.154297 
	C209.169769,758.151489 200.838470,758.255249 192.512360,758.092834 
	C189.228317,758.028748 187.961700,759.263977 188.174744,762.479797 
	C188.333466,764.875549 188.206024,767.290283 188.206024,769.646912 
	C204.867249,769.646912 220.610077,769.646912 236.872482,769.646912 
	C236.872482,767.340698 236.689209,765.356812 236.910080,763.418945 
	C237.390839,759.200867 235.600327,757.799561 231.487045,758.085449 
	C227.176620,758.385010 222.829285,758.153870 217.498993,758.154297 
M188.840866,787.509460 
	C188.006775,792.225403 190.153992,793.367920 194.631424,793.247498 
	C205.764969,792.948059 216.911957,793.149292 228.053558,793.149414 
	C230.814789,793.149475 233.576004,793.149414 236.423065,793.149414 
	C236.423065,789.019287 236.423065,785.651489 236.423065,781.948181 
	C221.381027,781.948181 206.761047,782.015259 192.142456,781.901794 
	C188.411774,781.872803 188.838486,784.239563 188.840866,787.509460 
z"/>
<path fill="#097B98" opacity="1.000000" stroke="none" 
	d="
M828.335693,1283.968750 
	C828.025085,1280.947754 828.017334,1278.150146 828.017334,1275.352661 
	C828.016724,1124.243652 828.014038,973.134705 828.046265,822.025696 
	C828.046753,819.900818 828.487671,817.776123 828.887573,815.256470 
	C856.087524,805.812134 883.206909,805.250732 911.025024,814.401978 
	C912.434570,815.497620 913.237976,816.248840 914.017700,817.468140 
	C914.000549,951.617065 914.007080,1085.297852 914.005615,1219.441650 
	C914.002380,1223.613037 914.007141,1227.321411 914.004028,1231.496338 
	C913.998047,1238.326416 913.999878,1244.690063 914.000366,1251.511230 
	C914.007507,1255.968018 914.015930,1259.966919 913.821411,1264.246582 
	C913.754944,1270.938843 913.891296,1277.350220 914.027710,1283.761719 
	C903.824646,1286.208496 893.732971,1289.908569 883.394104,1290.827637 
	C864.846069,1292.476318 846.326233,1291.051147 828.335693,1283.968750 
M895.924805,1231.834473 
	C894.388367,1228.717773 893.216736,1225.346924 891.253296,1222.527588 
	C882.092224,1209.372437 860.795898,1209.144897 851.096619,1221.949829 
	C844.029846,1231.279297 843.994202,1244.847412 851.013672,1253.525879 
	C858.452393,1262.722290 871.125610,1265.850952 881.642212,1261.087158 
	C892.397339,1256.215332 898.242554,1244.647949 895.924805,1231.834473 
M872.398315,837.043152 
	C870.134216,837.043152 867.870117,837.043152 865.398193,837.043152 
	C865.398193,853.304077 865.398193,868.854187 865.398193,884.605835 
	C869.354919,884.605835 873.018127,884.605835 876.984070,884.605835 
	C876.984070,869.509155 876.934814,854.882812 877.026978,840.257385 
	C877.044739,837.431396 875.660034,836.839966 872.398315,837.043152 
M841.979248,841.682739 
	C841.979248,855.939270 841.979248,870.195740 841.979248,884.685913 
	C845.920166,884.685913 849.278625,884.685913 852.793945,884.685913 
	C852.793945,868.753357 852.793945,853.209106 852.793945,837.057373 
	C850.042419,837.057373 847.588806,837.181091 845.153137,837.025208 
	C842.294556,836.842285 841.770264,838.417175 841.979248,841.682739 
M900.132080,853.501648 
	C900.132080,848.227844 900.132080,842.954041 900.132080,837.424194 
	C896.151550,837.424194 892.781616,837.424194 889.227051,837.424194 
	C889.227051,853.341980 889.227051,868.894531 889.227051,884.700867 
	C892.898254,884.700867 896.264893,884.700867 900.132385,884.700867 
	C900.132385,874.397583 900.132385,864.449402 900.132080,853.501648 
z"/>
<path fill="#9D84C6" opacity="1.000000" stroke="none" 
	d="
M635.732178,830.757690 
	C637.130615,825.081665 638.529053,819.405579 640.110840,813.460876 
	C655.489990,811.202087 670.667358,807.829468 685.887024,807.626831 
	C699.926575,807.439941 714.031006,810.513550 728.065308,812.451843 
	C732.780457,813.103088 737.367798,814.679138 742.382935,815.833008 
	C742.859863,818.323975 743.061401,820.814392 743.061646,823.304810 
	C743.077576,974.357483 743.076782,1125.410156 743.080139,1276.462769 
	C743.080200,1278.294312 743.114624,1280.125977 743.150879,1282.417358 
	C722.199158,1289.395142 700.745850,1292.107910 678.340698,1290.981689 
	C680.335693,1281.193481 682.804443,1271.482300 685.912415,1261.414551 
	C708.686157,1260.546265 723.406921,1241.065186 716.796082,1218.215698 
	C712.065247,1201.864380 696.353699,1194.149170 680.527710,1196.287598 
	C674.151794,1197.148926 667.638245,1199.440674 664.018066,1205.859497 
	C654.345520,1205.881592 644.673035,1205.903687 634.539917,1205.867065 
	C645.261475,1168.154785 645.388367,1130.460327 634.743530,1092.113159 
	C638.467407,1091.364136 641.953369,1091.011230 645.417969,1091.158813 
	C648.182190,1091.276978 649.431824,1090.067261 649.789551,1087.601807 
	C652.479370,1069.061890 656.137329,1050.595215 657.584229,1031.957520 
	C659.836731,1002.941345 655.776001,974.291138 649.588257,946.004333 
	C652.420898,945.715881 654.838257,945.433411 657.677002,945.147583 
	C660.056519,945.244751 662.014648,945.345215 663.980469,945.877075 
	C663.989746,1012.616089 663.991089,1078.923706 663.993408,1145.231445 
	C663.993469,1146.730835 663.862976,1148.246826 664.037231,1149.726318 
	C664.544312,1154.032715 667.976501,1155.731567 671.993958,1154.063477 
	C675.909668,1152.437378 676.014587,1149.310669 676.012817,1145.829224 
	C675.979370,1079.021729 675.988708,1012.214294 676.333130,945.233643 
	C677.223816,943.905823 678.024231,942.803955 678.277161,941.588196 
	C680.340027,931.671509 682.675903,921.791504 684.219727,911.790833 
	C688.298950,885.366394 685.363770,859.395081 678.426514,833.742493 
	C677.706726,831.080811 676.484558,829.863037 673.575684,829.980530 
	C668.085266,830.202454 662.581360,830.091614 656.616577,830.046387 
	C652.184265,830.044067 648.218323,830.114502 643.835083,830.208618 
	C640.855896,830.407410 638.294067,830.582581 635.732178,830.757690 
M708.009766,1020.500000 
	C708.008972,962.876587 708.008240,905.253113 708.006348,847.629700 
	C708.006348,846.130920 708.584473,844.184998 707.861145,843.226135 
	C706.343140,841.214355 704.375916,838.808594 702.158020,838.228943 
	C698.798096,837.350708 696.639465,839.847473 696.069214,843.225708 
	C695.822998,844.684082 696.010498,846.216614 696.010498,847.715454 
	C696.009644,935.149841 696.009644,1022.584167 696.009827,1110.018555 
	C696.009888,1122.342651 695.925049,1134.667969 696.100281,1146.989624 
	C696.128296,1148.962036 696.774170,1151.578491 698.127136,1152.704102 
	C699.619568,1153.945679 702.396362,1154.513428 704.362976,1154.120483 
	C707.687378,1153.456055 708.050842,1150.495850 708.046448,1147.405518 
	C707.986816,1105.437012 708.008301,1063.468506 708.009766,1020.500000 
z"/>
<path fill="#9D84C5" opacity="1.000000" stroke="none" 
	d="
M1309.844727,730.763916 
	C1309.924805,734.730286 1309.781982,738.390076 1309.781860,742.049866 
	C1309.776245,919.932312 1309.782837,1097.814819 1309.792603,1275.697266 
	C1309.792725,1277.361572 1309.855225,1279.026001 1309.940430,1281.120850 
	C1304.380127,1287.904541 1296.867432,1290.187500 1288.854370,1291.091797 
	C1278.152588,1292.299683 1268.515259,1289.210327 1259.420654,1282.584717 
	C1259.284790,1274.025635 1259.458862,1266.054321 1259.734131,1257.621216 
	C1259.770874,1253.422729 1259.706421,1249.686279 1259.715210,1245.490723 
	C1259.818359,1242.201538 1259.874146,1239.371338 1259.874268,1236.541260 
	C1259.878540,1117.974854 1259.895996,999.408386 1259.845337,880.841919 
	C1259.841064,870.874451 1259.375977,860.907166 1259.266968,850.563477 
	C1259.481689,846.106689 1259.554321,842.026184 1259.702393,837.489136 
	C1259.724731,832.054932 1259.671753,827.077332 1259.723022,821.635376 
	C1259.770020,817.109924 1259.712891,813.048645 1259.721924,808.525879 
	C1259.751953,802.716919 1259.715820,797.369568 1259.736328,791.761475 
	C1259.755493,791.326843 1259.718140,791.152893 1259.734985,790.643372 
	C1259.262207,788.923035 1258.735107,787.538330 1258.208008,786.153625 
	C1258.468384,784.394775 1258.948120,782.636780 1258.954712,780.877014 
	C1259.013184,765.232117 1258.910278,749.585938 1259.091553,733.942932 
	C1259.112793,732.106750 1260.045654,729.576294 1261.429810,728.570068 
	C1275.095459,718.636108 1293.687012,718.655090 1307.577148,728.364441 
	C1308.377441,728.923767 1308.989014,729.753479 1309.844727,730.763916 
M1278.975098,1239.500977 
	C1278.975952,1245.655884 1278.899536,1251.812256 1279.006226,1257.965332 
	C1279.070679,1261.674316 1281.041260,1264.004272 1284.859375,1263.910278 
	C1288.531738,1263.819702 1290.030518,1261.398315 1290.029419,1257.901733 
	C1290.026001,1246.756226 1290.006958,1235.610840 1290.039551,1224.465332 
	C1290.049805,1220.976440 1288.486572,1218.308472 1285.047607,1218.239990 
	C1281.364258,1218.166626 1278.868652,1220.290405 1278.956299,1224.529175 
	C1279.052612,1229.184937 1278.976074,1233.844238 1278.975098,1239.500977 
M1278.999268,754.051208 
	C1278.991089,765.028748 1279.021484,776.006531 1278.954590,786.983704 
	C1278.930176,791.003662 1280.076050,794.052856 1284.699585,793.955261 
	C1289.035400,793.863770 1290.074219,790.905823 1290.052002,787.111450 
	C1289.989868,776.466858 1289.995117,765.821472 1290.055176,755.176819 
	C1290.071533,752.286682 1289.677979,749.712830 1286.331543,749.078552 
	C1282.871582,748.422791 1279.996826,749.146179 1278.999268,754.051208 
z"/>
<path fill="#FDB7C1" opacity="1.000000" stroke="none" 
	d="
M1259.632935,1258.083252 
	C1259.458862,1266.054321 1259.284790,1274.025635 1259.118164,1282.413330 
	C1247.262207,1284.969849 1235.431885,1287.324707 1223.522339,1289.166626 
	C1216.673584,1290.225952 1209.695068,1290.971558 1202.777222,1290.952759 
	C1186.555176,1290.908813 1170.266113,1291.107300 1154.134521,1289.706665 
	C1140.862671,1288.554321 1127.778198,1285.242920 1114.180908,1282.387207 
	C1113.710571,1275.656372 1113.669922,1269.426636 1113.721191,1262.772949 
	C1113.854492,1260.902100 1113.895874,1259.455200 1114.409912,1258.012939 
	C1163.132690,1258.039307 1211.382812,1258.061279 1259.632935,1258.083252 
z"/>
<path fill="#ED3B59" opacity="1.000000" stroke="none" 
	d="
M177.031158,1091.003418 
	C174.155838,1091.187866 171.280518,1091.372437 168.122131,1091.866211 
	C164.040543,1092.009155 160.239136,1091.671143 156.444534,1091.734985 
	C153.783890,1091.779907 152.513000,1090.855713 152.137451,1088.196411 
	C149.698685,1070.927124 146.869308,1053.705688 144.824310,1036.391113 
	C143.798767,1027.708252 143.743912,1018.851562 143.968964,1010.091858 
	C144.520859,988.611694 147.446594,967.411255 152.989258,945.951721 
	C154.509125,945.196228 155.663437,945.028076 157.295822,944.902771 
	C164.181137,944.991821 170.588379,945.038025 177.009842,945.543579 
	C177.026428,994.336365 177.028793,1042.669922 177.031158,1091.003418 
z"/>
<path fill="#FDB7C1" opacity="1.000000" stroke="none" 
	d="
M1259.679688,792.022217 
	C1259.715820,797.369568 1259.751953,802.716919 1259.345093,808.603088 
	C1256.623047,809.432434 1254.344360,809.973877 1252.065186,809.976562 
	C1206.011230,810.030518 1159.957153,810.022644 1113.830566,809.564087 
	C1113.711060,804.459473 1113.664185,799.817871 1113.702637,794.722229 
	C1113.882812,791.506287 1113.977783,788.744507 1114.072754,785.982666 
	C1130.361328,783.330383 1146.575439,779.972473 1162.961670,778.247070 
	C1176.281616,776.844543 1189.924072,776.150513 1203.213989,777.390198 
	C1221.401489,779.086792 1239.390381,782.912415 1257.836182,785.989502 
	C1258.735107,787.538330 1259.262207,788.923035 1259.528687,790.673401 
	C1259.053101,791.192444 1258.838013,791.345886 1258.622925,791.499268 
	C1258.975220,791.673584 1259.327393,791.847900 1259.679688,792.022217 
z"/>
<path fill="#EF6246" opacity="1.000000" stroke="none" 
	d="
M145.049622,945.536560 
	C139.398422,945.621704 133.732666,945.956299 128.105591,945.628052 
	C126.573532,945.538574 124.165901,943.674927 123.846115,942.247742 
	C121.322769,930.986450 118.589584,919.711060 117.157463,908.285034 
	C115.946823,898.626099 115.360283,888.655823 116.336578,879.009460 
	C117.876892,863.790222 120.930077,848.722412 123.412102,833.601807 
	C123.873901,830.788513 125.432808,829.481445 128.619125,829.681641 
	C133.757690,830.004456 138.930298,829.785217 144.536438,830.347046 
	C145.006119,869.111633 145.027863,907.324097 145.049622,945.536560 
z"/>
<path fill="#32343B" opacity="1.000000" stroke="none" 
	d="
M998.799561,729.993774 
	C1008.814148,727.646912 1018.721924,724.452454 1028.871216,723.173889 
	C1040.791992,721.672180 1052.924683,721.344116 1064.961670,721.396362 
	C1080.801025,721.465088 1096.229492,724.884277 1111.422852,729.169067 
	C1112.527710,729.480652 1113.736450,731.653625 1113.804565,733.015869 
	C1114.069946,738.321899 1113.894897,743.649963 1113.507202,749.432129 
	C1112.748291,749.987976 1112.365723,750.081543 1111.519775,750.111694 
	C1074.032349,750.076233 1037.008545,750.104065 999.735229,750.083252 
	C999.316345,750.028564 999.147034,750.022461 998.941040,749.547974 
	C998.869507,742.717651 998.834534,736.355713 998.799561,729.993774 
z"/>
<path fill="#30333A" opacity="1.000000" stroke="none" 
	d="
M1113.629395,1263.196899 
	C1113.669922,1269.426636 1113.710571,1275.656372 1113.756104,1282.339355 
	C1098.321655,1287.384644 1082.626831,1290.607300 1066.485962,1291.155762 
	C1047.464844,1291.802368 1028.577759,1290.766479 1010.046692,1285.968628 
	C1006.553650,1285.064209 1003.056213,1284.176880 999.239502,1282.592407 
	C998.784302,1275.887329 998.650330,1269.871460 998.625732,1263.606201 
	C998.793030,1263.184814 998.850891,1263.012939 999.250916,1262.853760 
	C1000.037598,1262.786865 1000.482117,1262.707275 1001.393188,1262.705078 
	C1037.128662,1262.812256 1072.397705,1262.836670 1107.666626,1262.885132 
	C1109.654297,1262.887939 1111.641846,1263.088379 1113.629395,1263.196899 
z"/>
<path fill="#3152A7" opacity="1.000000" stroke="none" 
	d="
M998.491821,729.841919 
	C998.834534,736.355713 998.869507,742.717651 998.941528,749.792603 
	C998.978516,750.505676 999.039429,750.991394 998.930420,750.992371 
	C998.821411,750.993347 998.603943,750.979492 998.170166,750.985962 
	C969.688660,751.006775 941.640930,751.021118 913.593201,751.035400 
	C913.482727,744.885803 913.201721,738.731018 913.391479,732.590698 
	C913.434448,731.199707 914.824097,729.070129 916.079895,728.611511 
	C943.556091,718.577026 970.963623,718.176941 998.491821,729.841919 
z"/>
<path fill="#EE6246" opacity="1.000000" stroke="none" 
	d="
M176.995636,945.084229 
	C170.588379,945.038025 164.181137,944.991821 157.332092,944.447998 
	C156.873169,905.940430 156.856033,867.930359 156.838898,829.920288 
	C159.583511,829.857117 162.328110,829.794006 165.528107,829.695068 
	C169.366760,829.876221 172.750046,830.093079 176.590637,830.838440 
	C177.053726,860.419556 177.039902,889.472107 177.077164,918.524719 
	C177.088440,927.316406 177.241135,936.107910 177.252411,944.957825 
	C177.175751,945.016113 176.995636,945.084229 176.995636,945.084229 
z"/>
<path fill="#30333A" opacity="1.000000" stroke="none" 
	d="
M1113.788086,762.107666 
	C1113.824463,768.399414 1113.860840,774.691223 1113.389160,781.501404 
	C1074.908447,782.076050 1036.936035,782.132263 998.932068,781.708984 
	C998.774353,775.117981 998.648132,769.006470 998.651123,762.678528 
	C998.845459,762.307983 998.910522,762.153931 999.309937,761.992920 
	C1000.085388,761.932129 1000.526550,761.878235 1001.436157,761.870911 
	C1004.901367,761.931824 1007.898193,761.954956 1010.895020,761.959412 
	C1045.192627,762.010498 1079.490356,762.058655 1113.788086,762.107666 
z"/>
<path fill="#3050A1" opacity="1.000000" stroke="none" 
	d="
M998.516296,1263.855713 
	C998.650330,1269.871460 998.784302,1275.887329 998.921326,1282.356689 
	C971.700989,1293.838013 944.313110,1294.376465 916.749451,1284.115234 
	C916.142517,1283.889404 915.469116,1283.842041 914.427185,1283.736572 
	C913.891296,1277.350220 913.754944,1270.938843 914.287354,1264.247803 
	C942.809570,1263.930786 970.662964,1263.893311 998.516296,1263.855713 
z"/>
<path fill="#3152A7" opacity="1.000000" stroke="none" 
	d="
M998.521912,762.894958 
	C998.648132,769.006470 998.774353,775.117981 998.925354,782.049927 
	C998.869690,783.552429 998.789246,784.234436 998.451538,784.657410 
	C996.706787,783.945496 995.220581,783.102783 993.731628,783.097839 
	C968.828918,783.014893 943.925720,783.000732 919.023254,783.108948 
	C917.196045,783.116882 915.373352,784.177551 913.548584,784.748779 
	C913.473633,777.787292 913.398682,770.825806 913.883179,763.419678 
	C942.468994,762.948303 970.495483,762.921631 998.521912,762.894958 
z"/>
<path fill="#7B7678" opacity="1.000000" stroke="none" 
	d="
M998.708801,784.916443 
	C998.789246,784.234436 998.869690,783.552429 998.956848,782.529419 
	C1036.936035,782.132263 1074.908447,782.076050 1113.332397,781.960327 
	C1113.837036,782.990723 1113.890259,784.080627 1114.008057,785.576599 
	C1113.977783,788.744507 1113.882812,791.506287 1113.266235,794.643677 
	C1110.584473,794.971375 1108.424316,794.884216 1106.264160,794.881470 
	C1070.494629,794.836121 1034.725098,794.801392 998.919189,794.325745 
	C998.824829,790.896973 998.766785,787.906738 998.708801,784.916443 
z"/>
<path fill="#FECA2C" opacity="1.000000" stroke="none" 
	d="
M156.396835,829.858032 
	C156.856033,867.930359 156.873169,905.940430 156.854034,944.405273 
	C155.663437,945.028076 154.509125,945.196228 153.081604,945.576965 
	C150.499313,945.777588 148.190201,945.765564 145.465363,945.645020 
	C145.027863,907.324097 145.006119,869.111633 145.000381,830.427368 
	C148.662521,829.902283 152.308655,829.849060 156.396835,829.858032 
z"/>
<path fill="#7F7E7F" opacity="1.000000" stroke="none" 
	d="
M1113.853027,761.717896 
	C1079.490356,762.058655 1045.192627,762.010498 1010.895020,761.959412 
	C1007.898193,761.954956 1004.901367,761.931824 1001.268188,761.528870 
	C1000.070251,758.422791 999.508789,755.705200 998.899109,752.651123 
	C998.768555,751.869568 998.686279,751.424561 998.603943,750.979492 
	C998.603943,750.979492 998.821411,750.993347 999.130493,750.900879 
	C999.692139,750.639893 999.873901,750.414368 999.984802,750.131836 
	C1037.008545,750.104065 1074.032349,750.076233 1111.525391,750.534058 
	C1112.557007,753.673096 1113.119385,756.326355 1113.681763,758.979675 
	C1113.760498,759.762512 1113.839233,760.545349 1113.853027,761.717896 
z"/>
<path fill="#0171BC" opacity="1.000000" stroke="none" 
	d="
M998.170166,750.985962 
	C998.686279,751.424561 998.768555,751.869568 998.856445,753.100952 
	C998.899902,756.591431 998.937744,759.295654 998.975647,761.999817 
	C998.910522,762.153931 998.845459,762.307983 998.651123,762.678528 
	C970.495483,762.921631 942.468994,762.948303 914.014282,762.966553 
	C913.507446,759.279114 913.428955,755.600159 913.471802,751.478271 
	C941.640930,751.021118 969.688660,751.006775 998.170166,750.985962 
z"/>
<path fill="#0171BC" opacity="1.000000" stroke="none" 
	d="
M998.451538,784.657410 
	C998.766785,787.906738 998.824829,790.896973 998.816406,794.561157 
	C998.673340,795.386780 998.596680,795.538513 998.335083,795.612244 
	C997.765869,795.405090 997.381531,795.275940 996.530273,795.109497 
	C969.709473,795.097778 943.355713,795.123291 916.659912,795.115479 
	C915.403687,795.039246 914.489502,794.996277 913.575256,794.953308 
	C913.497131,791.864868 913.419067,788.776428 913.444763,785.218384 
	C915.373352,784.177551 917.196045,783.116882 919.023254,783.108948 
	C943.925720,783.000732 968.828918,783.014893 993.731628,783.097839 
	C995.220581,783.102783 996.706787,783.945496 998.451538,784.657410 
z"/>
<path fill="#3152A7" opacity="1.000000" stroke="none" 
	d="
M913.448364,795.409424 
	C914.489502,794.996277 915.403687,795.039246 916.659119,795.565918 
	C917.322754,801.423096 917.601074,806.799683 917.985413,812.168701 
	C918.195190,815.100403 918.045532,817.580994 914.041443,817.000000 
	C913.237976,816.248840 912.434570,815.497620 911.405762,814.550171 
	C911.870544,813.160461 913.095337,811.993958 913.156982,810.768921 
	C913.406433,805.810913 913.297913,800.834839 913.448364,795.409424 
z"/>
<path fill="#7B7678" opacity="1.000000" stroke="none" 
	d="
M1113.762451,758.532837 
	C1113.119385,756.326355 1112.557007,753.673096 1111.989014,750.597412 
	C1112.365723,750.081543 1112.748291,749.987976 1113.425781,749.886353 
	C1113.761597,752.614197 1113.802368,755.350037 1113.762451,758.532837 
z"/>
<path fill="#212429" opacity="1.000000" stroke="none" 
	d="
M673.405518,1291.028564 
	C674.179077,1290.759644 675.344116,1290.571411 676.731812,1290.618408 
	C675.901978,1290.938843 674.849426,1291.024048 673.405518,1291.028564 
z"/>
<path fill="#212429" opacity="1.000000" stroke="none" 
	d="
M125.256973,1290.955811 
	C125.309303,1290.750977 125.581078,1290.699097 125.923279,1290.809814 
	C125.821274,1291.017822 125.648849,1291.063232 125.256973,1290.955811 
z"/>
<path fill="#CE4A36" opacity="1.000000" stroke="none" 
	d="
M1412.000000,859.015991 
	C1385.025269,859.016113 1358.550171,858.951599 1332.076172,859.088806 
	C1328.294556,859.108398 1326.855835,858.265930 1326.899170,854.134644 
	C1327.110962,833.989502 1327.086548,813.840027 1326.912354,793.694153 
	C1326.879395,789.891663 1328.102295,788.928589 1331.767334,788.942078 
	C1365.567871,789.066711 1399.369385,789.064331 1433.170044,788.947815 
	C1436.763062,788.935486 1438.118164,789.763672 1438.083862,793.639771 
	C1437.903809,813.952087 1437.925781,834.267395 1438.068726,854.580322 
	C1438.093628,858.123108 1436.923096,859.189453 1433.478027,859.081482 
	C1426.491455,858.862488 1419.493408,859.016052 1412.000000,859.015991 
z"/>
<path fill="#CE4A36" opacity="1.000000" stroke="none" 
	d="
M1396.000000,900.985352 
	C1374.528809,900.985352 1353.555542,900.822266 1332.588257,901.107300 
	C1327.738037,901.173157 1326.722168,899.500854 1326.882202,895.129700 
	C1327.024902,891.235779 1326.954224,888.811890 1332.298828,888.855896 
	C1365.750610,889.131409 1399.206909,889.133667 1432.658447,888.852905 
	C1437.976562,888.808228 1437.978394,891.183472 1438.107300,895.088989 
	C1438.249023,899.386963 1437.384766,901.271667 1432.446533,901.111633 
	C1420.475586,900.723633 1408.483521,900.985413 1396.000000,900.985352 
z"/>
<path fill="#CE4A36" opacity="1.000000" stroke="none" 
	d="
M1413.000000,933.014648 
	C1385.701538,933.014282 1358.901123,932.840881 1332.106323,933.154175 
	C1326.495972,933.219788 1327.086304,930.346924 1326.899658,926.683533 
	C1326.690186,922.572083 1327.559204,920.868408 1332.271362,920.898621 
	C1365.726440,921.113159 1399.184814,921.150940 1432.638794,920.869568 
	C1437.932617,920.825073 1438.005249,923.147278 1438.105591,927.083618 
	C1438.213623,931.323242 1437.478760,933.502441 1432.466797,933.126099 
	C1426.177246,932.653870 1419.825073,933.013794 1413.000000,933.014648 
z"/>
<path fill="#F99420" opacity="1.000000" stroke="none" 
	d="
M1776.964600,1235.106445 
	C1778.086060,1237.333984 1779.057495,1239.236694 1780.266724,1241.605347 
	C1771.142944,1246.914429 1762.289795,1252.063232 1753.439819,1257.217163 
	C1749.998291,1259.221069 1746.465820,1261.089111 1743.153564,1263.288452 
	C1740.033081,1265.360596 1737.814819,1265.518677 1736.217651,1261.567017 
	C1735.425659,1259.607300 1734.113525,1257.857910 1732.659668,1255.367310 
	C1746.555786,1247.243042 1760.214844,1239.257202 1774.101318,1231.138550 
	C1775.078735,1232.451172 1775.946655,1233.616455 1776.964600,1235.106445 
z"/>
<path fill="#F99420" opacity="1.000000" stroke="none" 
	d="
M1727.609619,1220.647705 
	C1737.939697,1214.662354 1747.956787,1208.869629 1758.175049,1202.960571 
	C1760.189331,1206.440552 1761.996582,1209.562988 1764.209351,1213.385864 
	C1750.344727,1221.404541 1736.660767,1229.318726 1722.472290,1237.524658 
	C1720.371582,1233.929932 1718.562134,1230.833496 1716.359253,1227.063843 
	C1720.227417,1224.862793 1723.762085,1222.851685 1727.609619,1220.647705 
z"/>
<path fill="#F99420" opacity="1.000000" stroke="none" 
	d="
M1515.053345,854.016602 
	C1511.477417,856.134888 1508.230591,858.092529 1504.564087,860.303101 
	C1502.554810,856.816406 1500.765869,853.711975 1498.489258,849.761292 
	C1512.370361,841.767883 1526.086182,833.869568 1540.185791,825.750244 
	C1542.290283,829.174927 1544.170288,832.234070 1546.482666,835.997131 
	C1535.964600,842.036987 1525.673462,847.946472 1515.053345,854.016602 
z"/>
<path fill="#F99420" opacity="1.000000" stroke="none" 
	d="
M1498.349609,812.333313 
	C1506.871216,807.432251 1515.070679,802.708069 1523.873291,797.636414 
	C1525.893555,800.898254 1527.844238,804.047791 1530.136108,807.748230 
	C1522.399170,812.336304 1515.037476,816.743774 1507.633179,821.078064 
	C1502.611084,824.017944 1497.411377,826.670044 1492.504272,829.786560 
	C1486.797485,833.411072 1486.322388,827.879089 1484.265381,825.309265 
	C1481.926270,822.387146 1483.457031,820.697937 1486.357788,819.220703 
	C1490.351196,817.187073 1494.147095,814.765564 1498.349609,812.333313 
z"/>
<path fill="#60C4CE" opacity="1.000000" stroke="none" 
	d="
M763.450684,1251.258911 
	C778.987732,1251.149780 794.079041,1251.149780 809.603149,1251.149780 
	C809.603149,1255.382202 809.603149,1259.249390 809.603149,1263.562622 
	C808.179260,1263.678955 806.746338,1263.894165 805.312927,1263.897583 
	C792.519836,1263.928833 779.724060,1263.779297 766.935120,1264.013550 
	C763.009338,1264.085571 761.330322,1262.966187 761.953796,1258.984985 
	C762.350281,1256.453247 762.657593,1253.907471 763.450684,1251.258911 
z"/>
<path fill="#64C7D0" opacity="1.000000" stroke="none" 
	d="
M761.969116,756.067261 
	C761.341370,751.730896 763.178589,750.846619 766.785095,750.902344 
	C779.272766,751.095154 791.769714,751.171448 804.253479,750.877808 
	C808.781555,750.771423 810.765076,751.961548 810.069153,756.662903 
	C809.806580,758.436951 810.026550,760.282288 810.026550,762.534058 
	C793.971863,762.534058 778.289124,762.534058 761.969543,762.534058 
	C761.969543,760.427368 761.969543,758.482239 761.969116,756.067261 
z"/>
<path fill="#64C7D0" opacity="1.000000" stroke="none" 
	d="
M761.971802,788.084351 
	C762.082275,785.562866 761.329224,783.066162 764.864075,783.076843 
	C779.649414,783.121704 794.434998,783.095825 808.892578,783.095825 
	C809.413025,783.823730 809.737793,784.070923 809.768127,784.350037 
	C810.933167,795.069946 810.929504,795.070068 800.346619,795.069763 
	C787.870850,795.069397 775.395142,795.069641 761.971619,795.069641 
	C761.971619,792.690247 761.971619,790.621582 761.971802,788.084351 
z"/>
<path fill="#64C7D0" opacity="1.000000" stroke="none" 
	d="
M807.671631,1219.042236 
	C809.003296,1222.749756 809.871582,1226.431641 810.874084,1230.682617 
	C793.815918,1230.682617 778.253052,1230.682617 762.327820,1230.682617 
	C762.327820,1226.901001 762.327820,1223.336182 762.327820,1219.016479 
	C777.357483,1219.016479 792.282837,1219.016479 807.671631,1219.042236 
z"/>
<path fill="#BA9BCA" opacity="1.000000" stroke="none" 
	d="
M664.476318,1205.919434 
	C667.638245,1199.440674 674.151794,1197.148926 680.527710,1196.287598 
	C696.353699,1194.149170 712.065247,1201.864380 716.796082,1218.215698 
	C723.406921,1241.065186 708.686157,1260.546265 686.076904,1261.084106 
	C685.763306,1257.062378 685.924377,1253.014526 686.569031,1248.501953 
	C697.823364,1247.693359 706.188599,1239.123169 705.998108,1228.627197 
	C705.795715,1217.473633 697.482727,1209.012939 686.677429,1209.001709 
	C684.027039,1208.998901 681.376465,1209.108398 678.726013,1209.166260 
	C676.959900,1208.112549 675.300842,1206.503662 673.402039,1206.137451 
	C670.671021,1205.610474 667.765503,1205.988037 664.476318,1205.919434 
z"/>
<path fill="#9D84C5" opacity="1.000000" stroke="none" 
	d="
M678.797974,1209.542480 
	C681.376465,1209.108398 684.027039,1208.998901 686.677429,1209.001709 
	C697.482727,1209.012939 705.795715,1217.473633 705.998108,1228.627197 
	C706.188599,1239.123169 697.823364,1247.693359 686.646240,1248.047607 
	C685.647522,1234.984863 683.273743,1222.255737 678.797974,1209.542480 
z"/>
<path fill="#7F7E7F" opacity="1.000000" stroke="none" 
	d="
M146.795593,1224.720215 
	C147.511307,1224.472412 147.830185,1224.341919 148.156204,1224.320557 
	C157.586044,1223.701416 157.877762,1223.974365 157.877762,1233.353394 
	C157.877762,1246.291870 157.877762,1259.230347 157.877762,1271.878540 
	C157.209854,1272.361816 156.963379,1272.691528 156.688705,1272.717041 
	C145.215134,1273.779541 145.214417,1273.776123 145.213943,1262.365234 
	C145.213501,1251.560547 145.162918,1240.755371 145.267258,1229.951660 
	C145.283585,1228.260376 146.006119,1226.575928 146.795593,1224.720215 
z"/>
<path fill="#7F7E7F" opacity="1.000000" stroke="none" 
	d="
M652.088867,1224.225586 
	C656.780518,1223.531250 658.322449,1224.995239 658.201904,1229.577393 
	C657.869995,1242.195923 658.095337,1254.828979 658.078491,1267.456299 
	C658.076355,1269.077637 657.945618,1270.698730 657.861633,1272.611206 
	C653.959961,1272.611206 650.396118,1272.611206 646.101868,1272.611206 
	C646.101868,1268.232666 646.101440,1263.977051 646.101990,1259.721436 
	C646.103394,1249.752441 646.304688,1239.777832 646.015198,1229.817261 
	C645.888245,1225.449707 647.223755,1223.547729 652.088867,1224.225586 
z"/>
<path fill="#7F7E7F" opacity="1.000000" stroke="none" 
	d="
M625.928589,1240.004150 
	C625.928528,1251.089844 625.928528,1261.676025 625.928528,1272.591919 
	C621.858765,1272.591919 618.296631,1272.591919 614.334717,1272.591919 
	C614.334717,1256.894165 614.334717,1241.243774 614.334717,1225.221436 
	C618.005859,1225.221436 621.563660,1225.221436 625.928711,1225.221436 
	C625.928711,1230.005981 625.928711,1234.755371 625.928589,1240.004150 
z"/>
<path fill="#7F7E7F" opacity="1.000000" stroke="none" 
	d="
M190.063934,1229.173340 
	C190.064560,1243.883179 190.064560,1258.113525 190.064560,1272.635986 
	C185.901489,1272.635986 182.340179,1272.635986 178.424667,1272.635986 
	C178.424667,1256.803833 178.424667,1241.146606 178.424667,1224.880127 
	C181.628708,1224.880127 184.624084,1224.545166 187.468002,1225.054932 
	C188.516861,1225.243042 189.208664,1227.422607 190.063934,1229.173340 
z"/>
<path fill="#ED3A58" opacity="1.000000" stroke="none" 
	d="
M613.023132,1090.995239 
	C481.571564,1090.981567 350.119995,1090.967773 218.229263,1090.446289 
	C217.756882,1041.667236 217.723663,993.395996 218.186951,945.081421 
	C349.269592,945.026489 479.855743,945.014648 610.441895,945.008057 
	C611.273254,945.008057 612.104614,945.081665 612.969360,945.580933 
	C613.009583,994.359009 613.016357,1042.677124 613.023132,1090.995239 
M337.693451,1057.872314 
	C345.471863,1063.156860 354.097870,1065.946655 363.465210,1065.973267 
	C395.601471,1066.064087 427.738831,1066.131470 459.874390,1065.957031 
	C476.174652,1065.868530 489.409668,1058.627563 498.403625,1045.445435 
	C509.279938,1029.504517 510.375641,1012.073059 500.877899,994.968140 
	C491.936462,978.865173 477.589355,970.423645 459.248688,970.190247 
	C427.616791,969.787720 395.976013,970.033569 364.339325,970.134277 
	C360.720612,970.145752 356.985443,970.534180 353.506836,971.487305 
	C333.708557,976.911743 320.833344,989.621948 317.464386,1009.886841 
	C314.242371,1029.267700 320.859039,1045.603027 337.693451,1057.872314 
z"/>
<path fill="#ED3B59" opacity="1.000000" stroke="none" 
	d="
M649.172852,946.010376 
	C655.776001,974.291138 659.836731,1002.941345 657.584229,1031.957520 
	C656.137329,1050.595215 652.479370,1069.061890 649.789551,1087.601807 
	C649.431824,1090.067261 648.182190,1091.276978 645.417969,1091.158813 
	C641.953369,1091.011230 638.467407,1091.364136 634.560425,1091.730591 
	C631.379944,1091.649292 628.629761,1091.338501 625.451294,1090.554443 
	C625.029419,1041.747681 625.035706,993.413940 625.505615,945.051697 
	C632.380554,944.961548 638.791870,944.900024 645.556946,944.891541 
	C646.998108,945.299866 648.085449,945.655151 649.172852,946.010376 
z"/>
<path fill="#FECA2C" opacity="1.000000" stroke="none" 
	d="
M249.000000,1138.733276 
	C231.188599,1138.546265 213.877472,1138.293335 196.565598,1138.220093 
	C192.368240,1138.202271 189.408844,1136.530518 189.445618,1132.388672 
	C189.481369,1128.360962 192.536423,1126.356201 196.544632,1126.141968 
	C197.873749,1126.070923 199.209320,1126.116089 200.541931,1126.116089 
	C298.992218,1126.116089 397.442505,1126.116699 495.892792,1126.117554 
	C503.165192,1126.117676 505.971252,1127.763184 506.066284,1132.079346 
	C506.167847,1136.692505 503.065460,1138.731445 495.875549,1138.731689 
	C413.750366,1138.734741 331.625183,1138.733643 249.000000,1138.733276 
z"/>
<path fill="#FECA2C" opacity="1.000000" stroke="none" 
	d="
M394.000000,1170.950195 
	C328.670654,1170.946045 263.841309,1170.942017 199.011963,1170.936035 
	C197.679077,1170.935913 195.907837,1171.452393 195.098404,1170.795166 
	C192.970901,1169.067871 190.128754,1167.051880 189.663742,1164.731567 
	C189.035400,1161.596436 191.581284,1159.272217 195.154968,1159.013550 
	C196.150375,1158.941406 197.153961,1158.973022 198.153793,1158.973022 
	C297.980957,1158.969604 397.808136,1158.967285 497.635315,1158.971313 
	C498.966187,1158.971436 500.656097,1158.557617 501.551178,1159.204712 
	C503.273743,1160.449829 505.472473,1162.175903 505.746033,1163.966553 
	C506.021210,1165.767944 504.693512,1168.590332 503.156525,1169.683228 
	C501.481903,1170.874023 498.759949,1170.900024 496.493561,1170.904419 
	C462.495819,1170.971313 428.497894,1170.950439 394.000000,1170.950195 
z"/>
<path fill="#ED3B59" opacity="1.000000" stroke="none" 
	d="
M205.203705,1090.905518 
	C200.125336,1090.948364 195.046951,1090.991211 189.503174,1090.560303 
	C189.068222,1041.761475 189.098663,993.436096 189.582703,945.070557 
	C195.108261,945.054138 200.180237,945.077942 205.220688,945.562439 
	C205.194000,994.317200 205.198853,1042.611328 205.203705,1090.905518 
z"/>
<path fill="#FECA2C" opacity="1.000000" stroke="none" 
	d="
M549.318604,1137.580566 
	C558.197571,1113.768433 588.528931,1108.719238 604.877747,1127.344971 
	C616.124939,1140.158691 615.162781,1159.885498 602.302429,1172.337402 
	C590.327698,1183.932007 570.297852,1184.159302 558.369202,1172.907959 
	C548.017334,1163.144043 545.333618,1151.418579 549.318604,1137.580566 
M599.616333,1152.705566 
	C599.746643,1151.223145 600.044067,1149.733276 599.979858,1148.259399 
	C599.593140,1139.376343 595.186523,1133.093384 586.942017,1130.037598 
	C579.350159,1127.223999 572.169739,1128.598022 566.243774,1134.352661 
	C560.193726,1140.228027 558.527893,1147.373901 561.284851,1155.318115 
	C564.250183,1163.863037 571.348572,1168.365723 581.000244,1168.215576 
	C589.855774,1168.077759 596.095276,1163.064941 599.616333,1152.705566 
z"/>
<path fill="#F394A3" opacity="1.000000" stroke="none" 
	d="
M205.643967,1090.965942 
	C205.198853,1042.611328 205.194000,994.317200 205.656815,945.538879 
	C209.979797,945.078064 213.835114,945.101379 217.690430,945.124695 
	C217.723663,993.395996 217.756882,1041.667236 217.748077,1090.390259 
	C213.832123,1090.903442 209.958176,1090.964966 205.643967,1090.965942 
z"/>
<path fill="#F394A3" opacity="1.000000" stroke="none" 
	d="
M625.041992,945.080261 
	C625.035706,993.413940 625.029419,1041.747681 625.025208,1090.552246 
	C621.330627,1091.042603 617.633911,1091.062012 613.480225,1091.038330 
	C613.016357,1042.677124 613.009583,994.359009 613.039001,945.556519 
	C613.075195,945.072083 613.193909,944.986572 613.633301,944.990540 
	C617.614563,944.958496 621.156433,944.922485 624.777588,944.946777 
	C624.856750,945.007141 625.041992,945.080261 625.041992,945.080261 
z"/>
<path fill="#F397A6" opacity="1.000000" stroke="none" 
	d="
M189.129120,945.110779 
	C189.098663,993.436096 189.068222,1041.761475 189.037964,1090.558472 
	C187.933014,1091.082275 186.827896,1091.134399 184.894852,1091.156128 
	C182.071701,1091.174438 180.076492,1091.223022 178.081268,1091.271484 
	C177.905869,1091.227905 177.730484,1091.184448 177.293121,1091.072144 
	C177.028793,1042.669922 177.026428,994.336365 177.009842,945.543579 
	C176.995636,945.084229 177.175751,945.016113 177.678894,944.982422 
	C181.738693,944.958496 185.295334,944.968201 188.915802,945.022461 
	C188.979630,945.067078 189.129120,945.110779 189.129120,945.110779 
z"/>
<path fill="#ED3B59" opacity="1.000000" stroke="none" 
	d="
M178.363129,1091.485352 
	C180.076492,1091.223022 182.071701,1091.174438 184.484100,1091.210938 
	C182.815857,1091.430420 180.730423,1091.564697 178.363129,1091.485352 
z"/>
<path fill="#F99420" opacity="1.000000" stroke="none" 
	d="
M354.000000,649.977295 
	C401.966431,649.977600 449.432861,649.977173 496.899292,649.981628 
	C498.397217,649.981750 500.213623,649.506104 501.320587,650.177368 
	C503.111481,651.263245 505.358978,652.939087 505.700287,654.698242 
	C506.047180,656.486206 504.824707,659.264648 503.357605,660.521667 
	C501.948456,661.729004 499.345459,661.914246 497.266724,661.915527 
	C397.503967,661.976929 297.741180,661.987366 197.978561,661.860229 
	C195.616318,661.857239 192.673950,660.827026 191.017822,659.225586 
	C187.709152,656.026184 189.559036,651.127319 194.131119,650.164490 
	C195.732605,649.827271 197.446533,649.982849 199.109116,649.982605 
	C250.572739,649.975586 302.036377,649.977112 354.000000,649.977295 
z"/>
<path fill="#F99420" opacity="1.000000" stroke="none" 
	d="
M212.000763,714.982483 
	C307.435211,714.981079 402.369812,714.979431 497.304443,714.981201 
	C498.635925,714.981262 500.276367,714.542297 501.232117,715.153503 
	C503.013611,716.292725 505.458862,717.920654 505.669830,719.592285 
	C505.918488,721.562195 504.588165,724.371033 503.009277,725.738770 
	C501.635468,726.928894 498.962921,726.927368 496.863983,726.928467 
	C397.265930,726.979797 297.667847,726.976624 198.069778,726.951843 
	C196.438126,726.951477 194.184433,727.208069 193.308441,726.298035 
	C191.643021,724.567871 189.897736,722.130005 189.766891,719.893555 
	C189.576660,716.642090 192.303574,715.062683 195.512390,715.016418 
	C200.840973,714.939636 206.171341,714.987244 212.000763,714.982483 
z"/>
<path fill="#F99420" opacity="1.000000" stroke="none" 
	d="
M394.000000,682.020874 
	C428.818054,682.020630 463.136078,682.022095 497.454132,682.017883 
	C501.293365,682.017395 505.126160,682.355530 505.907501,687.055908 
	C506.537933,690.848206 504.980988,693.604858 500.707581,693.994080 
	C499.715637,694.084473 498.709869,694.029907 497.710449,694.029907 
	C397.921570,694.030823 298.132690,694.031921 198.343826,694.027405 
	C191.528152,694.027100 189.665939,692.631897 189.967514,687.829529 
	C190.189026,684.301758 192.114685,682.379456 195.589981,682.052734 
	C196.911484,681.928467 198.253555,682.018982 199.586258,682.018982 
	C264.224182,682.019165 328.862091,682.020081 394.000000,682.020874 
z"/>
<path fill="#F99420" opacity="1.000000" stroke="none" 
	d="
M576.327637,655.992920 
	C587.537842,655.181335 596.539307,658.523926 604.112549,666.457153 
	C617.282532,680.252991 614.692932,703.713928 598.937439,714.778931 
	C581.275452,727.182861 558.106079,719.720520 549.870728,700.609558 
	C541.982544,682.303955 553.658203,658.867920 576.327637,655.992920 
z"/>
<path fill="#EE6246" opacity="1.000000" stroke="none" 
	d="
M218.186951,945.081421 
	C213.835114,945.101379 209.979797,945.078064 205.688354,945.078247 
	C200.180237,945.077942 195.108261,945.054138 189.582703,945.070557 
	C189.129120,945.110779 188.979630,945.067078 188.990021,944.560547 
	C189.012161,906.198303 189.023911,868.342651 189.035660,830.487000 
	C190.027283,830.406494 191.018890,830.255554 192.010513,830.255554 
	C332.030701,830.257263 472.050903,830.269958 612.528076,830.822266 
	C612.978333,853.459106 612.941467,875.555908 612.975098,897.652588 
	C612.999023,913.430664 613.117554,929.208557 613.193909,944.986572 
	C613.193909,944.986572 613.075195,945.072083 613.005615,945.096497 
	C612.104614,945.081665 611.273254,945.008057 610.441895,945.008057 
	C479.855743,945.014648 349.269592,945.026489 218.186951,945.081421 
M247.511902,912.170349 
	C257.613953,906.151794 262.728058,896.984070 261.665253,885.539551 
	C260.096161,868.643188 246.629379,858.269226 229.720612,860.017334 
	C215.014954,861.537720 203.569733,875.362610 205.864838,890.717834 
	C208.953323,911.380920 227.725235,921.116882 247.511902,912.170349 
z"/>
<path fill="#EE6246" opacity="1.000000" stroke="none" 
	d="
M645.203125,944.838440 
	C638.791870,944.900024 632.380554,944.961548 625.505615,945.051697 
	C625.041992,945.080261 624.856750,945.007141 624.864685,944.495605 
	C624.895935,907.572937 624.929749,871.161865 624.903320,834.750732 
	C624.902283,833.332153 624.324829,831.913940 624.015991,830.495544 
	C627.677002,830.510193 631.338013,830.524841 635.365601,830.648560 
	C638.294067,830.582581 640.855896,830.407410 643.984192,830.578552 
	C644.733154,832.885254 645.071594,834.845459 645.075195,836.806274 
	C645.141785,872.816956 645.168213,908.827698 645.203125,944.838440 
z"/>
<path fill="#FECA2C" opacity="1.000000" stroke="none" 
	d="
M188.579346,830.390137 
	C189.023911,868.342651 189.012161,906.198303 188.926208,944.515869 
	C185.295334,944.968201 181.738693,944.958496 177.755554,944.924194 
	C177.241135,936.107910 177.088440,927.316406 177.077164,918.524719 
	C177.039902,889.472107 177.053726,860.419556 177.043228,830.932556 
	C180.733353,830.429871 184.428177,830.361633 188.579346,830.390137 
z"/>
<path fill="#FECA2C" opacity="1.000000" stroke="none" 
	d="
M623.570007,830.386353 
	C624.324829,831.913940 624.902283,833.332153 624.903320,834.750732 
	C624.929749,871.161865 624.895935,907.572937 624.785522,944.435242 
	C621.156433,944.922485 617.614563,944.958496 613.633301,944.990540 
	C613.117554,929.208557 612.999023,913.430664 612.975098,897.652588 
	C612.941467,875.555908 612.978333,853.459106 612.983398,830.927856 
	C616.362488,830.421326 619.743225,830.349243 623.570007,830.386353 
z"/>
<path fill="#64C7D0" opacity="1.000000" stroke="none" 
	d="
M576.195435,800.804626 
	C572.525269,797.139832 569.183044,793.642334 565.663757,790.333130 
	C563.669067,788.457458 563.456299,786.990540 565.501221,784.962585 
	C573.186890,777.341064 580.760498,769.606689 588.328552,761.962524 
	C597.058960,771.038269 605.516479,779.830200 613.697327,788.334595 
	C606.125549,795.948792 597.719543,804.401917 588.483521,813.689697 
	C584.646118,809.659485 580.547729,805.355103 576.195435,800.804626 
z"/>
<path fill="#60C4CE" opacity="1.000000" stroke="none" 
	d="
M224.980789,805.152100 
	C229.080887,805.152222 232.685272,805.152222 236.564468,805.152222 
	C236.564468,809.188416 236.564468,812.608459 236.564468,816.487671 
	C220.708542,816.487671 204.880859,816.487671 188.220398,816.487671 
	C188.220398,813.694458 187.797379,810.688049 188.420059,807.916626 
	C188.684174,806.741028 191.126312,805.304016 192.605896,805.272583 
	C203.228363,805.046753 213.857834,805.151855 224.980789,805.152100 
z"/>
<path fill="#60C4CE" opacity="1.000000" stroke="none" 
	d="
M217.998535,758.154541 
	C222.829285,758.153870 227.176620,758.385010 231.487045,758.085449 
	C235.600327,757.799561 237.390839,759.200867 236.910080,763.418945 
	C236.689209,765.356812 236.872482,767.340698 236.872482,769.646912 
	C220.610077,769.646912 204.867249,769.646912 188.206024,769.646912 
	C188.206024,767.290283 188.333466,764.875549 188.174744,762.479797 
	C187.961700,759.263977 189.228317,758.028748 192.512360,758.092834 
	C200.838470,758.255249 209.169769,758.151489 217.998535,758.154541 
z"/>
<path fill="#64C7D0" opacity="1.000000" stroke="none" 
	d="
M188.841003,787.038452 
	C188.838486,784.239563 188.411774,781.872803 192.142456,781.901794 
	C206.761047,782.015259 221.381027,781.948181 236.423065,781.948181 
	C236.423065,785.651489 236.423065,789.019287 236.423065,793.149414 
	C233.576004,793.149414 230.814789,793.149475 228.053558,793.149414 
	C216.911957,793.149292 205.764969,792.948059 194.631424,793.247498 
	C190.153992,793.367920 188.006775,792.225403 188.841003,787.038452 
z"/>
<path fill="#3050A5" opacity="1.000000" stroke="none" 
	d="
M914.017700,817.468140 
	C918.045532,817.580994 918.195190,815.100403 917.985413,812.168701 
	C917.601074,806.799683 917.322754,801.423096 917.001099,795.599182 
	C943.355713,795.123291 969.709473,795.097778 996.531006,795.494263 
	C997.543884,797.599915 998.088989,799.283508 998.720093,801.408936 
	C998.745667,804.245850 998.685181,806.640930 998.270264,809.157654 
	C997.610535,811.171814 997.039795,813.064087 997.038452,814.956787 
	C996.992249,879.429565 997.000000,943.902283 997.000000,1008.375061 
	C997.000000,1073.347656 996.986328,1138.320190 997.068176,1203.292603 
	C997.070557,1205.183716 998.083252,1207.073486 998.712524,1209.404541 
	C998.735352,1212.231689 998.670471,1214.618164 998.295166,1217.012939 
	C997.324402,1217.656982 996.664062,1218.292847 995.535400,1218.953369 
	C968.049316,1218.978149 941.031494,1218.978394 914.013672,1218.978516 
	C914.007080,1085.297852 914.000549,951.617065 914.017700,817.468140 
z"/>
<path fill="#64C7D0" opacity="1.000000" stroke="none" 
	d="
M895.970459,1232.238281 
	C898.242554,1244.647949 892.397339,1256.215332 881.642212,1261.087158 
	C871.125610,1265.850952 858.452393,1262.722290 851.013672,1253.525879 
	C843.994202,1244.847412 844.029846,1231.279297 851.096619,1221.949829 
	C860.795898,1209.144897 882.092224,1209.372437 891.253296,1222.527588 
	C893.216736,1225.346924 894.388367,1228.717773 895.970459,1232.238281 
z"/>
<path fill="#3050A1" opacity="1.000000" stroke="none" 
	d="
M914.001709,1251.053467 
	C913.999878,1244.690063 913.998047,1238.326416 914.471313,1231.486084 
	C942.850769,1230.967529 970.755066,1230.926025 998.737915,1231.357666 
	C998.883850,1238.162598 998.951233,1244.494385 998.937439,1250.914062 
	C998.856323,1251.001831 998.629028,1251.075806 998.213074,1251.064087 
	C990.211182,1251.352295 982.623352,1251.945557 975.039734,1251.895630 
	C954.692749,1251.761963 934.347595,1251.353027 914.001709,1251.053467 
z"/>
<path fill="#0171BC" opacity="1.000000" stroke="none" 
	d="
M914.000366,1251.511230 
	C934.347595,1251.353027 954.692749,1251.761963 975.039734,1251.895630 
	C982.623352,1251.945557 990.211182,1251.352295 998.290283,1251.507812 
	C998.834717,1254.974976 998.885986,1257.986694 998.902832,1261.304932 
	C998.881775,1262.021362 998.895325,1262.431274 998.908813,1262.841064 
	C998.850891,1263.012939 998.793030,1263.184814 998.625732,1263.606201 
	C970.662964,1263.893311 942.809570,1263.930786 914.490295,1263.967041 
	C914.015930,1259.966919 914.007507,1255.968018 914.000366,1251.511230 
z"/>
<path fill="#0171BC" opacity="1.000000" stroke="none" 
	d="
M998.659363,1230.884521 
	C970.755066,1230.926025 942.850769,1230.967529 914.479126,1231.019409 
	C914.007141,1227.321411 914.002380,1223.613037 914.005615,1219.441650 
	C941.031494,1218.978394 968.049316,1218.978149 995.851990,1218.978271 
	C997.271545,1218.986084 997.906311,1218.993774 998.647461,1219.451416 
	C998.821899,1223.309326 998.889954,1226.717285 998.896240,1230.320068 
	C998.834473,1230.515015 998.659363,1230.884521 998.659363,1230.884521 
z"/>
<path fill="#60C4CE" opacity="1.000000" stroke="none" 
	d="
M872.859253,837.044128 
	C875.660034,836.839966 877.044739,837.431396 877.026978,840.257385 
	C876.934814,854.882812 876.984070,869.509155 876.984070,884.605835 
	C873.018127,884.605835 869.354919,884.605835 865.398193,884.605835 
	C865.398193,868.854187 865.398193,853.304077 865.398193,837.043152 
	C867.870117,837.043152 870.134216,837.043152 872.859253,837.044128 
z"/>
<path fill="#64C7D0" opacity="1.000000" stroke="none" 
	d="
M841.978638,841.208801 
	C841.770264,838.417175 842.294556,836.842285 845.153137,837.025208 
	C847.588806,837.181091 850.042419,837.057373 852.793945,837.057373 
	C852.793945,853.209106 852.793945,868.753357 852.793945,884.685913 
	C849.278625,884.685913 845.920166,884.685913 841.979248,884.685913 
	C841.979248,870.195740 841.979248,855.939270 841.978638,841.208801 
z"/>
<path fill="#64C7D0" opacity="1.000000" stroke="none" 
	d="
M900.132202,854.001465 
	C900.132385,864.449402 900.132385,874.397583 900.132385,884.700867 
	C896.264893,884.700867 892.898254,884.700867 889.227051,884.700867 
	C889.227051,868.894531 889.227051,853.341980 889.227051,837.424194 
	C892.781616,837.424194 896.151550,837.424194 900.132080,837.424194 
	C900.132080,842.954041 900.132080,848.227844 900.132202,854.001465 
z"/>
<path fill="#BA9BCA" opacity="1.000000" stroke="none" 
	d="
M708.009766,1021.000000 
	C708.008301,1063.468506 707.986816,1105.437012 708.046448,1147.405518 
	C708.050842,1150.495850 707.687378,1153.456055 704.362976,1154.120483 
	C702.396362,1154.513428 699.619568,1153.945679 698.127136,1152.704102 
	C696.774170,1151.578491 696.128296,1148.962036 696.100281,1146.989624 
	C695.925049,1134.667969 696.009888,1122.342651 696.009827,1110.018555 
	C696.009644,1022.584167 696.009644,935.149841 696.010498,847.715454 
	C696.010498,846.216614 695.822998,844.684082 696.069214,843.225708 
	C696.639465,839.847473 698.798096,837.350708 702.158020,838.228943 
	C704.375916,838.808594 706.343140,841.214355 707.861145,843.226135 
	C708.584473,844.184998 708.006348,846.130920 708.006348,847.629700 
	C708.008240,905.253113 708.008972,962.876587 708.009766,1021.000000 
z"/>
<path fill="#EF6246" opacity="1.000000" stroke="none" 
	d="
M657.083069,830.119080 
	C662.581360,830.091614 668.085266,830.202454 673.575684,829.980530 
	C676.484558,829.863037 677.706726,831.080811 678.426514,833.742493 
	C685.363770,859.395081 688.298950,885.366394 684.219727,911.790833 
	C682.675903,921.791504 680.340027,931.671509 678.277161,941.588196 
	C678.024231,942.803955 677.223816,943.905823 675.881104,945.141113 
	C671.381042,945.296448 667.676880,945.371033 663.972778,945.445679 
	C662.014648,945.345215 660.056519,945.244751 657.636841,944.669556 
	C657.144592,906.169495 657.113831,868.144287 657.083069,830.119080 
z"/>
<path fill="#BA9BCA" opacity="1.000000" stroke="none" 
	d="
M663.980469,945.877014 
	C667.676880,945.371033 671.381042,945.296448 675.537170,945.314331 
	C675.988708,1012.214294 675.979370,1079.021729 676.012817,1145.829224 
	C676.014587,1149.310669 675.909668,1152.437378 671.993958,1154.063477 
	C667.976501,1155.731567 664.544312,1154.032715 664.037231,1149.726318 
	C663.862976,1148.246826 663.993469,1146.730835 663.993408,1145.231445 
	C663.991089,1078.923706 663.989746,1012.616089 663.980469,945.877014 
z"/>
<path fill="#FECA2C" opacity="1.000000" stroke="none" 
	d="
M656.616577,830.046387 
	C657.113831,868.144287 657.144592,906.169495 657.215454,944.672791 
	C654.838257,945.433411 652.420898,945.715881 649.588257,946.004395 
	C648.085449,945.655151 646.998108,945.299866 645.556946,944.891541 
	C645.168213,908.827698 645.141785,872.816956 645.075195,836.806274 
	C645.071594,834.845459 644.733154,832.885254 644.401489,830.554932 
	C648.218323,830.114502 652.184265,830.044067 656.616577,830.046387 
z"/>
<path fill="#FDB7C1" opacity="1.000000" stroke="none" 
	d="
M1259.125000,850.939758 
	C1259.375977,860.907166 1259.841064,870.874451 1259.845337,880.841919 
	C1259.895996,999.408386 1259.878540,1117.974854 1259.874268,1236.541260 
	C1259.874146,1239.371338 1259.818359,1242.201538 1259.284180,1245.510132 
	C1210.485840,1245.988525 1162.192017,1245.988525 1113.829834,1245.526611 
	C1113.672607,1240.134277 1113.583862,1235.203857 1113.612061,1229.803467 
	C1113.685181,1225.480957 1113.641113,1221.628296 1113.647949,1217.324951 
	C1113.708374,1098.735596 1113.716309,980.597229 1113.733398,862.458862 
	C1113.733887,858.629395 1113.828491,854.799866 1114.355469,850.969971 
	C1162.929565,850.959595 1211.027222,850.949707 1259.125000,850.939758 
M1142.446533,979.104370 
	C1141.294434,984.746277 1139.201538,990.378845 1139.145630,996.031616 
	C1138.825684,1028.339111 1138.968018,1060.651245 1138.997437,1092.961792 
	C1139.020386,1118.028931 1157.906372,1138.030762 1182.819580,1139.861938 
	C1212.158081,1142.018311 1234.457642,1120.033936 1234.882690,1091.237549 
	C1235.322632,1061.431763 1235.112427,1031.613525 1234.908325,1001.802551 
	C1234.837646,991.469971 1233.054810,981.450012 1227.253174,972.427551 
	C1215.780273,954.585693 1197.325195,947.013123 1177.964844,950.498291 
	C1161.903687,953.389587 1149.466553,962.745422 1142.446533,979.104370 
z"/>
<path fill="#FDB7C1" opacity="1.000000" stroke="none" 
	d="
M1259.618774,822.099670 
	C1259.671753,827.077332 1259.724731,832.054932 1259.272461,837.507568 
	C1210.470581,838.310547 1162.174072,838.638672 1113.806885,838.506409 
	C1113.786377,832.706543 1113.836426,827.367065 1114.362183,822.024109 
	C1163.098145,822.046997 1211.358521,822.073303 1259.618774,822.099670 
z"/>
<path fill="#F098A9" opacity="1.000000" stroke="none" 
	d="
M1113.877563,838.966736 
	C1162.174072,838.638672 1210.470581,838.310547 1259.197021,837.964111 
	C1259.554321,842.026184 1259.481689,846.106689 1259.266968,850.563477 
	C1211.027222,850.949707 1162.929565,850.959595 1114.206299,850.598389 
	C1113.679688,846.473755 1113.778687,842.720276 1113.877563,838.966736 
z"/>
<path fill="#F098A9" opacity="1.000000" stroke="none" 
	d="
M1259.723022,821.635376 
	C1211.358521,822.073303 1163.098145,822.046997 1114.160889,821.682312 
	C1113.623535,817.571655 1113.763306,813.799438 1113.903076,810.027161 
	C1159.957153,810.022644 1206.011230,810.030518 1252.065186,809.976562 
	C1254.344360,809.973877 1256.623047,809.432434 1259.278809,809.064636 
	C1259.712891,813.048645 1259.770020,817.109924 1259.723022,821.635376 
z"/>
<path fill="#F098A9" opacity="1.000000" stroke="none" 
	d="
M1113.898071,1245.988525 
	C1162.192017,1245.988525 1210.485840,1245.988525 1259.210815,1245.969238 
	C1259.706421,1249.686279 1259.770874,1253.422729 1259.734131,1257.621338 
	C1211.382812,1258.061279 1163.132690,1258.039307 1114.165283,1257.742676 
	C1113.304565,1255.986084 1113.161255,1254.504395 1113.161499,1252.914917 
	C1113.349731,1252.696289 1113.461060,1252.553711 1113.426392,1252.480835 
	C1113.328003,1252.274902 1113.169800,1252.097656 1113.076172,1251.676514 
	C1113.116943,1251.443848 1113.017822,1250.982178 1113.120361,1250.623169 
	C1113.447998,1248.838989 1113.673096,1247.413696 1113.898071,1245.988525 
z"/>
<path fill="#795F9D" opacity="1.000000" stroke="none" 
	d="
M1278.975098,1239.001465 
	C1278.976074,1233.844238 1279.052612,1229.184937 1278.956299,1224.529175 
	C1278.868652,1220.290405 1281.364258,1218.166626 1285.047607,1218.239990 
	C1288.486572,1218.308472 1290.049805,1220.976440 1290.039551,1224.465332 
	C1290.006958,1235.610840 1290.026001,1246.756226 1290.029419,1257.901733 
	C1290.030518,1261.398315 1288.531738,1263.819702 1284.859375,1263.910278 
	C1281.041260,1264.004272 1279.070679,1261.674316 1279.006226,1257.965332 
	C1278.899536,1251.812256 1278.975952,1245.655884 1278.975098,1239.001465 
z"/>
<path fill="#795F9D" opacity="1.000000" stroke="none" 
	d="
M1279.046753,753.612976 
	C1279.996826,749.146179 1282.871582,748.422791 1286.331543,749.078552 
	C1289.677979,749.712830 1290.071533,752.286682 1290.055176,755.176819 
	C1289.995117,765.821472 1289.989868,776.466858 1290.052002,787.111450 
	C1290.074219,790.905823 1289.035400,793.863770 1284.699585,793.955261 
	C1280.076050,794.052856 1278.930176,791.003662 1278.954590,786.983704 
	C1279.021484,776.006531 1278.991089,765.028748 1279.046753,753.612976 
z"/>
<path fill="#F098A9" opacity="1.000000" stroke="none" 
	d="
M1259.736328,791.761475 
	C1259.327393,791.847900 1258.975220,791.673584 1258.622925,791.499268 
	C1258.838013,791.345886 1259.053101,791.192444 1259.474365,791.009033 
	C1259.718140,791.152893 1259.755493,791.326843 1259.736328,791.761475 
z"/>
<path fill="#7F7E7F" opacity="1.000000" stroke="none" 
	d="
M1113.017822,1250.982178 
	C1113.017822,1250.982178 1113.116943,1251.443848 1113.070312,1251.955322 
	C1113.021851,1252.652100 1113.019897,1252.837402 1113.017944,1253.022705 
	C1113.161255,1254.504395 1113.304565,1255.986084 1113.692627,1257.738037 
	C1113.895874,1259.455200 1113.854492,1260.902100 1113.721191,1262.772949 
	C1111.641846,1263.088379 1109.654297,1262.887939 1107.666626,1262.885132 
	C1072.397705,1262.836670 1037.128662,1262.812256 1001.250061,1262.492188 
	C1000.072693,1261.800781 999.505005,1261.399536 998.937256,1260.998413 
	C998.885986,1257.986694 998.834717,1254.974976 998.706238,1251.519531 
	C998.629028,1251.075806 998.856323,1251.001831 999.404297,1250.942627 
	C1037.640869,1250.916260 1075.329346,1250.949219 1113.017822,1250.982178 
z"/>
<path fill="#30333A" opacity="1.000000" stroke="none" 
	d="
M1113.830566,809.564087 
	C1113.763306,813.799438 1113.623535,817.571655 1113.685059,821.685730 
	C1113.836426,827.367065 1113.786377,832.706543 1113.806885,838.506409 
	C1113.778687,842.720276 1113.679688,846.473755 1113.729980,850.598877 
	C1113.828491,854.799866 1113.733887,858.629395 1113.733398,862.458862 
	C1113.716309,980.597229 1113.708374,1098.735596 1113.212158,1217.389648 
	C1110.731445,1217.944092 1108.737671,1218.014038 1106.743774,1218.017090 
	C1071.155518,1218.071899 1035.567383,1218.118774 999.727661,1218.098389 
	C999.302673,1218.018555 999.129211,1218.007690 998.886475,1217.742432 
	C998.746765,1217.326904 998.676208,1217.165771 998.605652,1217.004761 
	C998.670471,1214.618164 998.735352,1212.231689 998.808289,1208.947754 
	C998.837708,1207.218506 998.877747,1206.386597 998.877747,1205.554810 
	C998.880615,1074.873047 998.881409,944.191406 998.870056,813.509705 
	C998.869934,812.018494 998.709961,810.527222 998.624634,809.036011 
	C998.685181,806.640930 998.745667,804.245850 998.813721,800.980469 
	C998.720886,798.636902 998.620483,797.163574 998.520081,795.690308 
	C998.596680,795.538513 998.673340,795.386780 998.852783,794.999634 
	C1034.725098,794.801392 1070.494629,794.836121 1106.264160,794.881470 
	C1108.424316,794.884216 1110.584473,794.971375 1113.180908,795.097778 
	C1113.664185,799.817871 1113.711060,804.459473 1113.830566,809.564087 
M1070.423462,863.084473 
	C1079.423340,857.216919 1084.370361,849.221252 1084.147461,838.167847 
	C1083.843750,823.118164 1071.846069,811.030273 1056.785400,810.934387 
	C1041.049683,810.834229 1028.374878,822.795288 1028.050781,837.990479 
	C1027.582520,859.952148 1050.799683,873.976379 1070.423462,863.084473 
z"/>
<path fill="#7B7678" opacity="1.000000" stroke="none" 
	d="
M999.735229,750.083252 
	C999.873901,750.414368 999.692139,750.639893 999.239502,750.899902 
	C999.039429,750.991394 998.978516,750.505676 998.978088,750.260986 
	C999.147034,750.022461 999.316345,750.028564 999.735229,750.083252 
z"/>
<path fill="#7B7678" opacity="1.000000" stroke="none" 
	d="
M998.902771,1261.304932 
	C999.505005,1261.399536 1000.072693,1261.800781 1000.783569,1262.414795 
	C1000.482117,1262.707275 1000.037598,1262.786865 999.250916,1262.853760 
	C998.895325,1262.431274 998.881775,1262.021362 998.902771,1261.304932 
z"/>
<path fill="#7B7678" opacity="1.000000" stroke="none" 
	d="
M999.309937,761.992920 
	C998.937744,759.295654 998.899902,756.591431 998.904663,753.437500 
	C999.508789,755.705200 1000.070251,758.422791 1000.799744,761.482361 
	C1000.526550,761.878235 1000.085388,761.932129 999.309937,761.992920 
z"/>
<path fill="#3152A7" opacity="1.000000" stroke="none" 
	d="
M998.335083,795.612244 
	C998.620483,797.163574 998.720886,798.636902 998.727661,800.538635 
	C998.088989,799.283508 997.543884,797.599915 996.998047,795.531494 
	C997.381531,795.275940 997.765869,795.405090 998.335083,795.612244 
z"/>
<path fill="#F397A6" opacity="1.000000" stroke="none" 
	d="
M337.394135,1057.668213 
	C320.859039,1045.603027 314.242371,1029.267700 317.464386,1009.886841 
	C320.833344,989.621948 333.708557,976.911743 353.506836,971.487305 
	C356.985443,970.534180 360.720612,970.145752 364.339325,970.134277 
	C395.976013,970.033569 427.616791,969.787720 459.248688,970.190247 
	C477.589355,970.423645 491.936462,978.865173 500.877899,994.968140 
	C510.375641,1012.073059 509.279938,1029.504517 498.403625,1045.445435 
	C489.409668,1058.627563 476.174652,1065.868530 459.874390,1065.957031 
	C427.738831,1066.131470 395.601471,1066.064087 363.465210,1065.973267 
	C354.097870,1065.946655 345.471863,1063.156860 337.394135,1057.668213 
z"/>
<path fill="#CE4A36" opacity="1.000000" stroke="none" 
	d="
M599.478027,1153.093628 
	C596.095276,1163.064941 589.855774,1168.077759 581.000244,1168.215576 
	C571.348572,1168.365723 564.250183,1163.863037 561.284851,1155.318115 
	C558.527893,1147.373901 560.193726,1140.228027 566.243774,1134.352661 
	C572.169739,1128.598022 579.350159,1127.223999 586.942017,1130.037598 
	C595.186523,1133.093384 599.593140,1139.376343 599.979858,1148.259399 
	C600.044067,1149.733276 599.746643,1151.223145 599.478027,1153.093628 
z"/>
<path fill="#FECD2C" opacity="1.000000" stroke="none" 
	d="
M247.183533,912.353882 
	C227.725235,921.116882 208.953323,911.380920 205.864838,890.717834 
	C203.569733,875.362610 215.014954,861.537720 229.720612,860.017334 
	C246.629379,858.269226 260.096161,868.643188 261.665253,885.539551 
	C262.728058,896.984070 257.613953,906.151794 247.183533,912.353882 
z"/>
<path fill="#3152A7" opacity="1.000000" stroke="none" 
	d="
M998.270264,809.157654 
	C998.709961,810.527222 998.869934,812.018494 998.870056,813.509705 
	C998.881409,944.191406 998.880615,1074.873047 998.877747,1205.554810 
	C998.877747,1206.386597 998.837708,1207.218506 998.720642,1208.507080 
	C998.083252,1207.073486 997.070557,1205.183716 997.068176,1203.292603 
	C996.986328,1138.320190 997.000000,1073.347656 997.000000,1008.375061 
	C997.000000,943.902283 996.992249,879.429565 997.038452,814.956787 
	C997.039795,813.064087 997.610535,811.171814 998.270264,809.157654 
z"/>
<path fill="#3152A7" opacity="1.000000" stroke="none" 
	d="
M998.295166,1217.012939 
	C998.676208,1217.165771 998.746765,1217.326904 998.882019,1217.992798 
	C998.965576,1218.663574 998.984314,1218.829346 998.887451,1218.996582 
	C998.771973,1218.998047 998.541016,1219.001343 998.541016,1219.001343 
	C997.906311,1218.993774 997.271545,1218.986084 996.320312,1218.953613 
	C996.664062,1218.292847 997.324402,1217.656982 998.295166,1217.012939 
z"/>
<path fill="#32343B" opacity="1.000000" stroke="none" 
	d="
M1113.120361,1250.623291 
	C1075.329346,1250.949219 1037.640869,1250.916260 999.485474,1250.854736 
	C998.951233,1244.494385 998.883850,1238.162598 998.737915,1231.357666 
	C998.659363,1230.884521 998.834473,1230.515015 999.369019,1230.305908 
	C1013.356384,1230.090454 1026.809204,1230.058350 1040.261963,1230.083374 
	C1064.672974,1230.128784 1089.083984,1230.208252 1113.494995,1230.273315 
	C1113.583862,1235.203857 1113.672607,1240.134277 1113.829834,1245.526611 
	C1113.673096,1247.413696 1113.447998,1248.838989 1113.120361,1250.623291 
z"/>
<path fill="#7F7E7F" opacity="1.000000" stroke="none" 
	d="
M1113.612061,1229.803467 
	C1089.083984,1230.208252 1064.672974,1230.128784 1040.261963,1230.083374 
	C1026.809204,1230.058350 1013.356384,1230.090454 999.430786,1230.110962 
	C998.889954,1226.717285 998.821899,1223.309326 998.647461,1219.451416 
	C998.541016,1219.001343 998.771973,1218.998047 999.091064,1218.911133 
	C999.669861,1218.666016 999.859558,1218.447021 999.979187,1218.167358 
	C1035.567383,1218.118774 1071.155518,1218.071899 1106.743774,1218.017090 
	C1108.737671,1218.014038 1110.731445,1217.944092 1113.161133,1217.840576 
	C1113.641113,1221.628296 1113.685181,1225.480957 1113.612061,1229.803467 
z"/>
<path fill="#F397A6" opacity="1.000000" stroke="none" 
	d="
M1142.625366,978.763306 
	C1149.466553,962.745422 1161.903687,953.389587 1177.964844,950.498291 
	C1197.325195,947.013123 1215.780273,954.585693 1227.253174,972.427551 
	C1233.054810,981.450012 1234.837646,991.469971 1234.908325,1001.802551 
	C1235.112427,1031.613525 1235.322632,1061.431763 1234.882690,1091.237549 
	C1234.457642,1120.033936 1212.158081,1142.018311 1182.819580,1139.861938 
	C1157.906372,1138.030762 1139.020386,1118.028931 1138.997437,1092.961792 
	C1138.968018,1060.651245 1138.825684,1028.339111 1139.145630,996.031616 
	C1139.201538,990.378845 1141.294434,984.746277 1142.625366,978.763306 
z"/>
<path fill="#7B7678" opacity="1.000000" stroke="none" 
	d="
M1113.161499,1252.914917 
	C1113.019897,1252.837402 1113.021851,1252.652100 1113.029541,1252.187988 
	C1113.169800,1252.097656 1113.328003,1252.274902 1113.426392,1252.480835 
	C1113.461060,1252.553711 1113.349731,1252.696289 1113.161499,1252.914917 
z"/>
<path fill="#7F7E7F" opacity="1.000000" stroke="none" 
	d="
M1070.116455,863.292175 
	C1050.799683,873.976379 1027.582520,859.952148 1028.050781,837.990479 
	C1028.374878,822.795288 1041.049683,810.834229 1056.785400,810.934387 
	C1071.846069,811.030273 1083.843750,823.118164 1084.147461,838.167847 
	C1084.370361,849.221252 1079.423340,857.216919 1070.116455,863.292175 
z"/>
<path fill="#7B7678" opacity="1.000000" stroke="none" 
	d="
M999.727661,1218.098389 
	C999.859558,1218.447021 999.669861,1218.666016 999.206543,1218.909668 
	C998.984314,1218.829346 998.965576,1218.663574 998.951233,1218.247314 
	C999.129211,1218.007690 999.302673,1218.018555 999.727661,1218.098389 
z"/>
</svg>